<?xml version="1.0" encoding="utf-8" standalone="no"?>
<!DOCTYPE svg PUBLIC "-//W3C//DTD SVG 1.1//EN"
  "http://www.w3.org/Graphics/SVG/1.1/DTD/svg11.dtd">
<!-- Created with matplotlib (http://matplotlib.org/) -->
<svg height="288pt" version="1.1" viewBox="0 0 432 288" width="432pt" xmlns="http://www.w3.org/2000/svg" xmlns:xlink="http://www.w3.org/1999/xlink">
 <defs>
  <style type="text/css">
*{stroke-linecap:butt;stroke-linejoin:round;stroke-miterlimit:100000;}
  </style>
 </defs>
 <g id="figure_1">
  <g id="patch_1">
   <path d="M 0 288 
L 432 288 
L 432 0 
L 0 0 
z
" style="fill:#ffffff;"/>
  </g>
  <g id="axes_1">
   <g id="patch_2">
    <path d="M 221.4 252 
C 250.996666 252 279.385114 240.24112 300.313117 219.313117 
C 321.24112 198.385114 333 169.996666 333 140.4 
C 333 110.803334 321.24112 82.414886 300.313117 61.486883 
C 279.385114 40.55888 250.996666 28.8 221.4 28.8 
C 191.803334 28.8 163.414886 40.55888 142.486883 61.486883 
C 121.55888 82.414886 109.8 110.803334 109.8 140.4 
C 109.8 169.996666 121.55888 198.385114 142.486883 219.313117 
C 163.414886 240.24112 191.803334 252 221.4 252 
z
" style="fill:#ffffff;"/>
   </g>
   <g id="line2d_1">
    <path clip-path="url(#pd7b3638f57)" d="M 221.4 28.8 
" style="fill:none;stroke:#0000ff;stroke-linecap:square;"/>
   </g>
   <g id="line2d_2">
    <defs>
     <path d="M 0 3 
C 0.795609 3 1.55874 2.683901 2.12132 2.12132 
C 2.683901 1.55874 3 0.795609 3 0 
C 3 -0.795609 2.683901 -1.55874 2.12132 -2.12132 
C 1.55874 -2.683901 0.795609 -3 0 -3 
C -0.795609 -3 -1.55874 -2.683901 -2.12132 -2.12132 
C -2.683901 -1.55874 -3 -0.795609 -3 0 
C -3 0.795609 -2.683901 1.55874 -2.12132 2.12132 
C -1.55874 2.683901 -0.795609 3 0 3 
z
" id="m840f4912f3" style="stroke:#000000;stroke-width:0.5;"/>
    </defs>
    <g clip-path="url(#pd7b3638f57)">
     <use style="fill:#ff0000;stroke:#000000;stroke-width:0.5;" x="271.901145392" xlink:href="#m840f4912f3" y="82.0998831572"/>
    </g>
   </g>
   <g id="line2d_3">
    <defs>
     <path d="M -3 3 
L 3 3 
L 3 -3 
L -3 -3 
z
" id="m6909b5d450" style="stroke:#000000;stroke-linejoin:miter;stroke-width:0.5;"/>
    </defs>
    <g clip-path="url(#pd7b3638f57)">
     <use style="fill:#0000ff;stroke:#000000;stroke-linejoin:miter;stroke-width:0.5;" x="274.949770307" xlink:href="#m6909b5d450" y="192.293337602"/>
    </g>
   </g>
   <g id="patch_3">
    <path d="M 221.4 252 
C 250.996666 252 279.385114 240.24112 300.313117 219.313117 
C 321.24112 198.385114 333 169.996666 333 140.4 
C 333 110.803334 321.24112 82.414886 300.313117 61.486883 
C 279.385114 40.55888 250.996666 28.8 221.4 28.8 
C 191.803334 28.8 163.414886 40.55888 142.486883 61.486883 
C 121.55888 82.414886 109.8 110.803334 109.8 140.4 
C 109.8 169.996666 121.55888 198.385114 142.486883 219.313117 
C 163.414886 240.24112 191.803334 252 221.4 252 
L 221.4 252 
z
" style="fill:none;stroke:#000000;stroke-linecap:square;stroke-linejoin:miter;"/>
   </g>
   <g id="matplotlib.axis_1">
    <g id="xtick_1">
     <g id="line2d_4">
      <path clip-path="url(#pd7b3638f57)" d="M 221.4 140.4 
L 221.4 28.8 
" style="fill:none;stroke:#000000;stroke-dasharray:1.000000,3.000000;stroke-dashoffset:0.0;stroke-width:0.5;"/>
     </g>
     <g id="text_1">
      <!-- 0 -->
      <defs>
       <path d="M 31.78125 66.40625 
Q 24.171875 66.40625 20.328125 58.90625 
Q 16.5 51.421875 16.5 36.375 
Q 16.5 21.390625 20.328125 13.890625 
Q 24.171875 6.390625 31.78125 6.390625 
Q 39.453125 6.390625 43.28125 13.890625 
Q 47.125 21.390625 47.125 36.375 
Q 47.125 51.421875 43.28125 58.90625 
Q 39.453125 66.40625 31.78125 66.40625 
M 31.78125 74.21875 
Q 44.046875 74.21875 50.515625 64.515625 
Q 56.984375 54.828125 56.984375 36.375 
Q 56.984375 17.96875 50.515625 8.265625 
Q 44.046875 -1.421875 31.78125 -1.421875 
Q 19.53125 -1.421875 13.0625 8.265625 
Q 6.59375 17.96875 6.59375 36.375 
Q 6.59375 54.828125 13.0625 64.515625 
Q 19.53125 74.21875 31.78125 74.21875 
" id="BitstreamVeraSans-Roman-30"/>
      </defs>
      <g transform="translate(218.21875 20.399375)scale(0.1 -0.1)">
       <use xlink:href="#BitstreamVeraSans-Roman-30"/>
      </g>
     </g>
    </g>
    <g id="xtick_2">
     <g id="line2d_5">
      <path clip-path="url(#pd7b3638f57)" d="M 221.4 140.4 
L 259.569448 35.530304 
" style="fill:none;stroke:#000000;stroke-dasharray:1.000000,3.000000;stroke-dashoffset:0.0;stroke-width:0.5;"/>
     </g>
     <g id="text_2">
      <!-- 20 -->
      <defs>
       <path d="M 19.1875 8.296875 
L 53.609375 8.296875 
L 53.609375 0 
L 7.328125 0 
L 7.328125 8.296875 
Q 12.9375 14.109375 22.625 23.890625 
Q 32.328125 33.6875 34.8125 36.53125 
Q 39.546875 41.84375 41.421875 45.53125 
Q 43.3125 49.21875 43.3125 52.78125 
Q 43.3125 58.59375 39.234375 62.25 
Q 35.15625 65.921875 28.609375 65.921875 
Q 23.96875 65.921875 18.8125 64.3125 
Q 13.671875 62.703125 7.8125 59.421875 
L 7.8125 69.390625 
Q 13.765625 71.78125 18.9375 73 
Q 24.125 74.21875 28.421875 74.21875 
Q 39.75 74.21875 46.484375 68.546875 
Q 53.21875 62.890625 53.21875 53.421875 
Q 53.21875 48.921875 51.53125 44.890625 
Q 49.859375 40.875 45.40625 35.40625 
Q 44.1875 33.984375 37.640625 27.21875 
Q 31.109375 20.453125 19.1875 8.296875 
" id="BitstreamVeraSans-Roman-32"/>
      </defs>
      <g transform="translate(257.023892795 27.8027088723)scale(0.1 -0.1)">
       <use xlink:href="#BitstreamVeraSans-Roman-32"/>
       <use x="63.623046875" xlink:href="#BitstreamVeraSans-Roman-30"/>
      </g>
     </g>
    </g>
    <g id="xtick_3">
     <g id="line2d_6">
      <path clip-path="url(#pd7b3638f57)" d="M 221.4 140.4 
L 293.135097 54.90944 
" style="fill:none;stroke:#000000;stroke-dasharray:1.000000,3.000000;stroke-dashoffset:0.0;stroke-width:0.5;"/>
     </g>
     <g id="text_3">
      <!-- 40 -->
      <defs>
       <path d="M 37.796875 64.3125 
L 12.890625 25.390625 
L 37.796875 25.390625 
z
M 35.203125 72.90625 
L 47.609375 72.90625 
L 47.609375 25.390625 
L 58.015625 25.390625 
L 58.015625 17.1875 
L 47.609375 17.1875 
L 47.609375 0 
L 37.796875 0 
L 37.796875 17.1875 
L 4.890625 17.1875 
L 4.890625 26.703125 
z
" id="BitstreamVeraSans-Roman-34"/>
      </defs>
      <g transform="translate(293.946106965 49.1197591627)scale(0.1 -0.1)">
       <use xlink:href="#BitstreamVeraSans-Roman-34"/>
       <use x="63.623046875" xlink:href="#BitstreamVeraSans-Roman-30"/>
      </g>
     </g>
    </g>
    <g id="xtick_4">
     <g id="line2d_7">
      <path clip-path="url(#pd7b3638f57)" d="M 221.4 140.4 
L 318.048435 84.6 
" style="fill:none;stroke:#000000;stroke-dasharray:1.000000,3.000000;stroke-dashoffset:0.0;stroke-width:0.5;"/>
     </g>
     <g id="text_4">
      <!-- 60 -->
      <defs>
       <path d="M 33.015625 40.375 
Q 26.375 40.375 22.484375 35.828125 
Q 18.609375 31.296875 18.609375 23.390625 
Q 18.609375 15.53125 22.484375 10.953125 
Q 26.375 6.390625 33.015625 6.390625 
Q 39.65625 6.390625 43.53125 10.953125 
Q 47.40625 15.53125 47.40625 23.390625 
Q 47.40625 31.296875 43.53125 35.828125 
Q 39.65625 40.375 33.015625 40.375 
M 52.59375 71.296875 
L 52.59375 62.3125 
Q 48.875 64.0625 45.09375 64.984375 
Q 41.3125 65.921875 37.59375 65.921875 
Q 27.828125 65.921875 22.671875 59.328125 
Q 17.53125 52.734375 16.796875 39.40625 
Q 19.671875 43.65625 24.015625 45.921875 
Q 28.375 48.1875 33.59375 48.1875 
Q 44.578125 48.1875 50.953125 41.515625 
Q 57.328125 34.859375 57.328125 23.390625 
Q 57.328125 12.15625 50.6875 5.359375 
Q 44.046875 -1.421875 33.015625 -1.421875 
Q 20.359375 -1.421875 13.671875 8.265625 
Q 6.984375 17.96875 6.984375 36.375 
Q 6.984375 53.65625 15.1875 63.9375 
Q 23.390625 74.21875 37.203125 74.21875 
Q 40.921875 74.21875 44.703125 73.484375 
Q 48.484375 72.75 52.59375 71.296875 
" id="BitstreamVeraSans-Roman-36"/>
      </defs>
      <g transform="translate(321.350778569 81.779375)scale(0.1 -0.1)">
       <use xlink:href="#BitstreamVeraSans-Roman-36"/>
       <use x="63.623046875" xlink:href="#BitstreamVeraSans-Roman-30"/>
      </g>
     </g>
    </g>
    <g id="xtick_5">
     <g id="line2d_8">
      <path clip-path="url(#pd7b3638f57)" d="M 221.4 140.4 
L 331.304545 121.020863 
" style="fill:none;stroke:#000000;stroke-dasharray:1.000000,3.000000;stroke-dashoffset:0.0;stroke-width:0.5;"/>
     </g>
     <g id="text_5">
      <!-- 80 -->
      <defs>
       <path d="M 31.78125 34.625 
Q 24.75 34.625 20.71875 30.859375 
Q 16.703125 27.09375 16.703125 20.515625 
Q 16.703125 13.921875 20.71875 10.15625 
Q 24.75 6.390625 31.78125 6.390625 
Q 38.8125 6.390625 42.859375 10.171875 
Q 46.921875 13.96875 46.921875 20.515625 
Q 46.921875 27.09375 42.890625 30.859375 
Q 38.875 34.625 31.78125 34.625 
M 21.921875 38.8125 
Q 15.578125 40.375 12.03125 44.71875 
Q 8.5 49.078125 8.5 55.328125 
Q 8.5 64.0625 14.71875 69.140625 
Q 20.953125 74.21875 31.78125 74.21875 
Q 42.671875 74.21875 48.875 69.140625 
Q 55.078125 64.0625 55.078125 55.328125 
Q 55.078125 49.078125 51.53125 44.71875 
Q 48 40.375 41.703125 38.8125 
Q 48.828125 37.15625 52.796875 32.3125 
Q 56.78125 27.484375 56.78125 20.515625 
Q 56.78125 9.90625 50.3125 4.234375 
Q 43.84375 -1.421875 31.78125 -1.421875 
Q 19.734375 -1.421875 13.25 4.234375 
Q 6.78125 9.90625 6.78125 20.515625 
Q 6.78125 27.484375 10.78125 32.3125 
Q 14.796875 37.15625 21.921875 38.8125 
M 18.3125 54.390625 
Q 18.3125 48.734375 21.84375 45.5625 
Q 25.390625 42.390625 31.78125 42.390625 
Q 38.140625 42.390625 41.71875 45.5625 
Q 45.3125 48.734375 45.3125 54.390625 
Q 45.3125 60.0625 41.71875 63.234375 
Q 38.140625 66.40625 31.78125 66.40625 
Q 25.390625 66.40625 21.84375 63.234375 
Q 18.3125 60.0625 18.3125 54.390625 
" id="BitstreamVeraSans-Roman-38"/>
      </defs>
      <g transform="translate(335.93249976 121.84232471)scale(0.1 -0.1)">
       <use xlink:href="#BitstreamVeraSans-Roman-38"/>
       <use x="63.623046875" xlink:href="#BitstreamVeraSans-Roman-30"/>
      </g>
     </g>
    </g>
    <g id="xtick_6">
     <g id="line2d_9">
      <path clip-path="url(#pd7b3638f57)" d="M 221.4 140.4 
L 331.304545 159.779137 
" style="fill:none;stroke:#000000;stroke-dasharray:1.000000,3.000000;stroke-dashoffset:0.0;stroke-width:0.5;"/>
     </g>
     <g id="text_6">
      <!-- 100 -->
      <defs>
       <path d="M 12.40625 8.296875 
L 28.515625 8.296875 
L 28.515625 63.921875 
L 10.984375 60.40625 
L 10.984375 69.390625 
L 28.421875 72.90625 
L 38.28125 72.90625 
L 38.28125 8.296875 
L 54.390625 8.296875 
L 54.390625 0 
L 12.40625 0 
z
" id="BitstreamVeraSans-Roman-31"/>
      </defs>
      <g transform="translate(332.75124976 164.47642529)scale(0.1 -0.1)">
       <use xlink:href="#BitstreamVeraSans-Roman-31"/>
       <use x="63.623046875" xlink:href="#BitstreamVeraSans-Roman-30"/>
       <use x="127.24609375" xlink:href="#BitstreamVeraSans-Roman-30"/>
      </g>
     </g>
    </g>
    <g id="xtick_7">
     <g id="line2d_10">
      <path clip-path="url(#pd7b3638f57)" d="M 221.4 140.4 
L 318.048435 196.2 
" style="fill:none;stroke:#000000;stroke-dasharray:1.000000,3.000000;stroke-dashoffset:0.0;stroke-width:0.5;"/>
     </g>
     <g id="text_7">
      <!-- 120 -->
      <g transform="translate(318.169528569 204.539375)scale(0.1 -0.1)">
       <use xlink:href="#BitstreamVeraSans-Roman-31"/>
       <use x="63.623046875" xlink:href="#BitstreamVeraSans-Roman-32"/>
       <use x="127.24609375" xlink:href="#BitstreamVeraSans-Roman-30"/>
      </g>
     </g>
    </g>
    <g id="xtick_8">
     <g id="line2d_11">
      <path clip-path="url(#pd7b3638f57)" d="M 221.4 140.4 
L 293.135097 225.89056 
" style="fill:none;stroke:#000000;stroke-dasharray:1.000000,3.000000;stroke-dashoffset:0.0;stroke-width:0.5;"/>
     </g>
     <g id="text_8">
      <!-- 140 -->
      <g transform="translate(290.764856965 237.198990837)scale(0.1 -0.1)">
       <use xlink:href="#BitstreamVeraSans-Roman-31"/>
       <use x="63.623046875" xlink:href="#BitstreamVeraSans-Roman-34"/>
       <use x="127.24609375" xlink:href="#BitstreamVeraSans-Roman-30"/>
      </g>
     </g>
    </g>
    <g id="xtick_9">
     <g id="line2d_12">
      <path clip-path="url(#pd7b3638f57)" d="M 221.4 140.4 
L 259.569448 245.269696 
" style="fill:none;stroke:#000000;stroke-dasharray:1.000000,3.000000;stroke-dashoffset:0.0;stroke-width:0.5;"/>
     </g>
     <g id="text_9">
      <!-- 160 -->
      <g transform="translate(253.842642795 258.516041128)scale(0.1 -0.1)">
       <use xlink:href="#BitstreamVeraSans-Roman-31"/>
       <use x="63.623046875" xlink:href="#BitstreamVeraSans-Roman-36"/>
       <use x="127.24609375" xlink:href="#BitstreamVeraSans-Roman-30"/>
      </g>
     </g>
    </g>
    <g id="xtick_10">
     <g id="line2d_13">
      <path clip-path="url(#pd7b3638f57)" d="M 221.4 140.4 
L 221.4 252 
" style="fill:none;stroke:#000000;stroke-dasharray:1.000000,3.000000;stroke-dashoffset:0.0;stroke-width:0.5;"/>
     </g>
     <g id="text_10">
      <!-- 180 -->
      <g transform="translate(211.85625 265.919375)scale(0.1 -0.1)">
       <use xlink:href="#BitstreamVeraSans-Roman-31"/>
       <use x="63.623046875" xlink:href="#BitstreamVeraSans-Roman-38"/>
       <use x="127.24609375" xlink:href="#BitstreamVeraSans-Roman-30"/>
      </g>
     </g>
    </g>
    <g id="xtick_11">
     <g id="line2d_14">
      <path clip-path="url(#pd7b3638f57)" d="M 221.4 140.4 
L 183.230552 245.269696 
" style="fill:none;stroke:#000000;stroke-dasharray:1.000000,3.000000;stroke-dashoffset:0.0;stroke-width:0.5;"/>
     </g>
     <g id="text_11">
      <!-- 200 -->
      <g transform="translate(169.869857205 258.516041128)scale(0.1 -0.1)">
       <use xlink:href="#BitstreamVeraSans-Roman-32"/>
       <use x="63.623046875" xlink:href="#BitstreamVeraSans-Roman-30"/>
       <use x="127.24609375" xlink:href="#BitstreamVeraSans-Roman-30"/>
      </g>
     </g>
    </g>
    <g id="xtick_12">
     <g id="line2d_15">
      <path clip-path="url(#pd7b3638f57)" d="M 221.4 140.4 
L 149.664903 225.89056 
" style="fill:none;stroke:#000000;stroke-dasharray:1.000000,3.000000;stroke-dashoffset:0.0;stroke-width:0.5;"/>
     </g>
     <g id="text_12">
      <!-- 220 -->
      <g transform="translate(132.947643035 237.198990837)scale(0.1 -0.1)">
       <use xlink:href="#BitstreamVeraSans-Roman-32"/>
       <use x="63.623046875" xlink:href="#BitstreamVeraSans-Roman-32"/>
       <use x="127.24609375" xlink:href="#BitstreamVeraSans-Roman-30"/>
      </g>
     </g>
    </g>
    <g id="xtick_13">
     <g id="line2d_16">
      <path clip-path="url(#pd7b3638f57)" d="M 221.4 140.4 
L 124.751565 196.2 
" style="fill:none;stroke:#000000;stroke-dasharray:1.000000,3.000000;stroke-dashoffset:0.0;stroke-width:0.5;"/>
     </g>
     <g id="text_13">
      <!-- 240 -->
      <g transform="translate(105.542971431 204.539375)scale(0.1 -0.1)">
       <use xlink:href="#BitstreamVeraSans-Roman-32"/>
       <use x="63.623046875" xlink:href="#BitstreamVeraSans-Roman-34"/>
       <use x="127.24609375" xlink:href="#BitstreamVeraSans-Roman-30"/>
      </g>
     </g>
    </g>
    <g id="xtick_14">
     <g id="line2d_17">
      <path clip-path="url(#pd7b3638f57)" d="M 221.4 140.4 
L 111.495455 159.779137 
" style="fill:none;stroke:#000000;stroke-dasharray:1.000000,3.000000;stroke-dashoffset:0.0;stroke-width:0.5;"/>
     </g>
     <g id="text_14">
      <!-- 260 -->
      <g transform="translate(90.9612502402 164.47642529)scale(0.1 -0.1)">
       <use xlink:href="#BitstreamVeraSans-Roman-32"/>
       <use x="63.623046875" xlink:href="#BitstreamVeraSans-Roman-36"/>
       <use x="127.24609375" xlink:href="#BitstreamVeraSans-Roman-30"/>
      </g>
     </g>
    </g>
    <g id="xtick_15">
     <g id="line2d_18">
      <path clip-path="url(#pd7b3638f57)" d="M 221.4 140.4 
L 111.495455 121.020863 
" style="fill:none;stroke:#000000;stroke-dasharray:1.000000,3.000000;stroke-dashoffset:0.0;stroke-width:0.5;"/>
     </g>
     <g id="text_15">
      <!-- 280 -->
      <g transform="translate(90.9612502402 121.84232471)scale(0.1 -0.1)">
       <use xlink:href="#BitstreamVeraSans-Roman-32"/>
       <use x="63.623046875" xlink:href="#BitstreamVeraSans-Roman-38"/>
       <use x="127.24609375" xlink:href="#BitstreamVeraSans-Roman-30"/>
      </g>
     </g>
    </g>
    <g id="xtick_16">
     <g id="line2d_19">
      <path clip-path="url(#pd7b3638f57)" d="M 221.4 140.4 
L 124.751565 84.6 
" style="fill:none;stroke:#000000;stroke-dasharray:1.000000,3.000000;stroke-dashoffset:0.0;stroke-width:0.5;"/>
     </g>
     <g id="text_16">
      <!-- 300 -->
      <defs>
       <path d="M 40.578125 39.3125 
Q 47.65625 37.796875 51.625 33 
Q 55.609375 28.21875 55.609375 21.1875 
Q 55.609375 10.40625 48.1875 4.484375 
Q 40.765625 -1.421875 27.09375 -1.421875 
Q 22.515625 -1.421875 17.65625 -0.515625 
Q 12.796875 0.390625 7.625 2.203125 
L 7.625 11.71875 
Q 11.71875 9.328125 16.59375 8.109375 
Q 21.484375 6.890625 26.8125 6.890625 
Q 36.078125 6.890625 40.9375 10.546875 
Q 45.796875 14.203125 45.796875 21.1875 
Q 45.796875 27.640625 41.28125 31.265625 
Q 36.765625 34.90625 28.71875 34.90625 
L 20.21875 34.90625 
L 20.21875 43.015625 
L 29.109375 43.015625 
Q 36.375 43.015625 40.234375 45.921875 
Q 44.09375 48.828125 44.09375 54.296875 
Q 44.09375 59.90625 40.109375 62.90625 
Q 36.140625 65.921875 28.71875 65.921875 
Q 24.65625 65.921875 20.015625 65.03125 
Q 15.375 64.15625 9.8125 62.3125 
L 9.8125 71.09375 
Q 15.4375 72.65625 20.34375 73.4375 
Q 25.25 74.21875 29.59375 74.21875 
Q 40.828125 74.21875 47.359375 69.109375 
Q 53.90625 64.015625 53.90625 55.328125 
Q 53.90625 49.265625 50.4375 45.09375 
Q 46.96875 40.921875 40.578125 39.3125 
" id="BitstreamVeraSans-Roman-33"/>
      </defs>
      <g transform="translate(105.542971431 81.779375)scale(0.1 -0.1)">
       <use xlink:href="#BitstreamVeraSans-Roman-33"/>
       <use x="63.623046875" xlink:href="#BitstreamVeraSans-Roman-30"/>
       <use x="127.24609375" xlink:href="#BitstreamVeraSans-Roman-30"/>
      </g>
     </g>
    </g>
    <g id="xtick_17">
     <g id="line2d_20">
      <path clip-path="url(#pd7b3638f57)" d="M 221.4 140.4 
L 149.664903 54.90944 
" style="fill:none;stroke:#000000;stroke-dasharray:1.000000,3.000000;stroke-dashoffset:0.0;stroke-width:0.5;"/>
     </g>
     <g id="text_17">
      <!-- 320 -->
      <g transform="translate(132.947643035 49.1197591627)scale(0.1 -0.1)">
       <use xlink:href="#BitstreamVeraSans-Roman-33"/>
       <use x="63.623046875" xlink:href="#BitstreamVeraSans-Roman-32"/>
       <use x="127.24609375" xlink:href="#BitstreamVeraSans-Roman-30"/>
      </g>
     </g>
    </g>
    <g id="xtick_18">
     <g id="line2d_21">
      <path clip-path="url(#pd7b3638f57)" d="M 221.4 140.4 
L 183.230552 35.530304 
" style="fill:none;stroke:#000000;stroke-dasharray:1.000000,3.000000;stroke-dashoffset:0.0;stroke-width:0.5;"/>
     </g>
     <g id="text_18">
      <!-- 340 -->
      <g transform="translate(169.869857205 27.8027088723)scale(0.1 -0.1)">
       <use xlink:href="#BitstreamVeraSans-Roman-33"/>
       <use x="63.623046875" xlink:href="#BitstreamVeraSans-Roman-34"/>
       <use x="127.24609375" xlink:href="#BitstreamVeraSans-Roman-30"/>
      </g>
     </g>
    </g>
   </g>
   <g id="matplotlib.axis_2">
    <g id="ytick_1">
     <g id="line2d_22">
      <path clip-path="url(#pd7b3638f57)" d="M 221.4 46.756481 
L 224.668112 46.813526 
L 227.932242 46.984592 
L 231.188413 47.26947 
L 234.432659 47.667813 
L 237.661026 48.179137 
L 240.869582 48.802817 
L 244.054418 49.538094 
L 247.211652 50.384072 
L 250.337439 51.339721 
L 253.42797 52.403876 
L 256.47948 53.575241 
L 259.48825 54.852389 
L 262.450617 56.233763 
L 265.362969 57.71768 
L 268.221759 59.302334 
L 271.023505 60.985792 
L 273.764791 62.766004 
L 276.442279 64.640802 
L 279.052707 66.6079 
L 281.592894 68.664903 
L 284.059745 70.809304 
L 286.450254 73.03849 
L 288.76151 75.349746 
L 290.990696 77.740255 
L 293.135097 80.207106 
L 295.1921 82.747293 
L 297.159198 85.357721 
L 299.033996 88.035209 
L 300.814208 90.776495 
L 302.497666 93.578241 
L 304.08232 96.437031 
L 305.566237 99.349383 
L 306.947611 102.31175 
L 308.224759 105.32052 
L 309.396124 108.37203 
L 310.460279 111.462561 
L 311.415928 114.588348 
L 312.261906 117.745582 
L 312.997183 120.930418 
L 313.620863 124.138974 
L 314.132187 127.367341 
L 314.53053 130.611587 
L 314.815408 133.867758 
L 314.986474 137.131888 
L 315.043519 140.4 
L 314.986474 143.668112 
L 314.815408 146.932242 
L 314.53053 150.188413 
L 314.132187 153.432659 
L 313.620863 156.661026 
L 312.997183 159.869582 
L 312.261906 163.054418 
L 311.415928 166.211652 
L 310.460279 169.337439 
L 309.396124 172.42797 
L 308.224759 175.47948 
L 306.947611 178.48825 
L 305.566237 181.450617 
L 304.08232 184.362969 
L 302.497666 187.221759 
L 300.814208 190.023505 
L 299.033996 192.764791 
L 297.159198 195.442279 
L 295.1921 198.052707 
L 293.135097 200.592894 
L 290.990696 203.059745 
L 288.76151 205.450254 
L 286.450254 207.76151 
L 284.059745 209.990696 
L 281.592894 212.135097 
L 279.052707 214.1921 
L 276.442279 216.159198 
L 273.764791 218.033996 
L 271.023505 219.814208 
L 268.221759 221.497666 
L 265.362969 223.08232 
L 262.450617 224.566237 
L 259.48825 225.947611 
L 256.47948 227.224759 
L 253.42797 228.396124 
L 250.337439 229.460279 
L 247.211652 230.415928 
L 244.054418 231.261906 
L 240.869582 231.997183 
L 237.661026 232.620863 
L 234.432659 233.132187 
L 231.188413 233.53053 
L 227.932242 233.815408 
L 224.668112 233.986474 
L 221.4 234.043519 
L 218.131888 233.986474 
L 214.867758 233.815408 
L 211.611587 233.53053 
L 208.367341 233.132187 
L 205.138974 232.620863 
L 201.930418 231.997183 
L 198.745582 231.261906 
L 195.588348 230.415928 
L 192.462561 229.460279 
L 189.37203 228.396124 
L 186.32052 227.224759 
L 183.31175 225.947611 
L 180.349383 224.566237 
L 177.437031 223.08232 
L 174.578241 221.497666 
L 171.776495 219.814208 
L 169.035209 218.033996 
L 166.357721 216.159198 
L 163.747293 214.1921 
L 161.207106 212.135097 
L 158.740255 209.990696 
L 156.349746 207.76151 
L 154.03849 205.450254 
L 151.809304 203.059745 
L 149.664903 200.592894 
L 147.6079 198.052707 
L 145.640802 195.442279 
L 143.766004 192.764791 
L 141.985792 190.023505 
L 140.302334 187.221759 
L 138.71768 184.362969 
L 137.233763 181.450617 
L 135.852389 178.48825 
L 134.575241 175.47948 
L 133.403876 172.42797 
L 132.339721 169.337439 
L 131.384072 166.211652 
L 130.538094 163.054418 
L 129.802817 159.869582 
L 129.179137 156.661026 
L 128.667813 153.432659 
L 128.26947 150.188413 
L 127.984592 146.932242 
L 127.813526 143.668112 
L 127.756481 140.4 
L 127.813526 137.131888 
L 127.984592 133.867758 
L 128.26947 130.611587 
L 128.667813 127.367341 
L 129.179137 124.138974 
L 129.802817 120.930418 
L 130.538094 117.745582 
L 131.384072 114.588348 
L 132.339721 111.462561 
L 133.403876 108.37203 
L 134.575241 105.32052 
L 135.852389 102.31175 
L 137.233763 99.349383 
L 138.71768 96.437031 
L 140.302334 93.578241 
L 141.985792 90.776495 
L 143.766004 88.035209 
L 145.640802 85.357721 
L 147.6079 82.747293 
L 149.664903 80.207106 
L 151.809304 77.740255 
L 154.03849 75.349746 
L 156.349746 73.03849 
L 158.740255 70.809304 
L 161.207106 68.664903 
L 163.747293 66.6079 
L 166.357721 64.640802 
L 169.035209 62.766004 
L 171.776495 60.985792 
L 174.578241 59.302334 
L 177.437031 57.71768 
L 180.349383 56.233763 
L 183.31175 54.852389 
L 186.32052 53.575241 
L 189.37203 52.403876 
L 192.462561 51.339721 
L 195.588348 50.384072 
L 198.745582 49.538094 
L 201.930418 48.802817 
L 205.138974 48.179137 
L 208.367341 47.667813 
L 211.611587 47.26947 
L 214.867758 46.984592 
L 218.131888 46.813526 
L 221.4 46.756481 
L 221.4 46.756481 
" style="fill:none;stroke:#000000;stroke-dasharray:1.000000,3.000000;stroke-dashoffset:0.0;stroke-width:0.5;"/>
     </g>
     <g id="text_19">
      <!-- 10 -->
      <g transform="translate(257.235823208 51.804982092)scale(0.1 -0.1)">
       <use xlink:href="#BitstreamVeraSans-Roman-31"/>
       <use x="63.623046875" xlink:href="#BitstreamVeraSans-Roman-30"/>
      </g>
     </g>
    </g>
    <g id="ytick_2">
     <g id="line2d_23">
      <path clip-path="url(#pd7b3638f57)" d="M 221.4 75.96771 
L 223.648654 76.00696 
L 225.894569 76.124664 
L 230.367242 76.594761 
L 234.796226 77.37571 
L 239.159946 78.463708 
L 243.437141 79.853453 
L 247.606973 81.538174 
L 251.649128 83.509665 
L 255.543912 85.758319 
L 259.27235 88.273182 
L 262.816278 91.042002 
L 266.15843 94.051289 
L 269.282523 97.286383 
L 272.173337 100.731521 
L 274.816789 104.369921 
L 277.2 108.183855 
L 279.311359 112.154743 
L 281.140579 116.263239 
L 282.678749 120.489327 
L 283.918376 124.812418 
L 284.853419 129.21145 
L 285.479323 133.664992 
L 285.79304 138.151346 
L 285.79304 142.648654 
L 285.479323 147.135008 
L 284.853419 151.58855 
L 283.918376 155.987582 
L 282.678749 160.310673 
L 281.140579 164.536761 
L 279.311359 168.645257 
L 277.2 172.616145 
L 274.816789 176.430079 
L 272.173337 180.068479 
L 269.282523 183.513617 
L 266.15843 186.748711 
L 262.816278 189.757998 
L 259.27235 192.526818 
L 255.543912 195.041681 
L 251.649128 197.290335 
L 247.606973 199.261826 
L 243.437141 200.946547 
L 239.159946 202.336292 
L 234.796226 203.42429 
L 230.367242 204.205239 
L 225.894569 204.675336 
L 221.4 204.83229 
L 216.905431 204.675336 
L 212.432758 204.205239 
L 208.003774 203.42429 
L 203.640054 202.336292 
L 199.362859 200.946547 
L 195.193027 199.261826 
L 191.150872 197.290335 
L 187.256088 195.041681 
L 183.52765 192.526818 
L 179.983722 189.757998 
L 176.64157 186.748711 
L 173.517477 183.513617 
L 170.626663 180.068479 
L 167.983211 176.430079 
L 165.6 172.616145 
L 163.488641 168.645257 
L 161.659421 164.536761 
L 160.121251 160.310673 
L 158.881624 155.987582 
L 157.946581 151.58855 
L 157.320677 147.135008 
L 157.00696 142.648654 
L 157.00696 138.151346 
L 157.320677 133.664992 
L 157.946581 129.21145 
L 158.881624 124.812418 
L 160.121251 120.489327 
L 161.659421 116.263239 
L 163.488641 112.154743 
L 165.6 108.183855 
L 167.983211 104.369921 
L 170.626663 100.731521 
L 173.517477 97.286383 
L 176.64157 94.051289 
L 179.983722 91.042002 
L 183.52765 88.273182 
L 187.256088 85.758319 
L 191.150872 83.509665 
L 195.193027 81.538174 
L 199.362859 79.853453 
L 203.640054 78.463708 
L 208.003774 77.37571 
L 212.432758 76.594761 
L 216.905431 76.124664 
L 221.4 75.96771 
L 221.4 75.96771 
" style="fill:none;stroke:#000000;stroke-dasharray:1.000000,3.000000;stroke-dashoffset:0.0;stroke-width:0.5;"/>
     </g>
     <g id="text_20">
      <!-- 30 -->
      <g transform="translate(246.057169908 78.7926384978)scale(0.1 -0.1)">
       <use xlink:href="#BitstreamVeraSans-Roman-33"/>
       <use x="63.623046875" xlink:href="#BitstreamVeraSans-Roman-30"/>
      </g>
     </g>
    </g>
    <g id="ytick_3">
     <g id="line2d_24">
      <path clip-path="url(#pd7b3638f57)" d="M 221.4 99.780922 
L 222.817585 99.805666 
L 224.233444 99.879868 
L 227.053083 100.176224 
L 229.845181 100.668546 
L 232.596135 101.354436 
L 235.292543 102.230552 
L 237.921267 103.292626 
L 240.469502 104.535483 
L 242.924832 105.953068 
L 245.275295 107.538475 
L 247.50944 109.283981 
L 249.616383 111.18108 
L 251.585858 113.220532 
L 253.40827 115.392398 
L 255.074742 117.6861 
L 256.577154 120.090461 
L 257.908186 122.593768 
L 259.061353 125.183826 
L 260.031039 127.848015 
L 260.812518 130.573356 
L 261.401983 133.346571 
L 261.796563 136.15415 
L 261.994334 138.982415 
L 261.994334 141.817585 
L 261.796563 144.64585 
L 261.401983 147.453429 
L 260.812518 150.226644 
L 260.031039 152.951985 
L 259.061353 155.616174 
L 257.908186 158.206232 
L 256.577154 160.709539 
L 255.074742 163.1139 
L 253.40827 165.407602 
L 251.585858 167.579468 
L 249.616383 169.61892 
L 247.50944 171.516019 
L 245.275295 173.261525 
L 242.924832 174.846932 
L 240.469502 176.264517 
L 237.921267 177.507374 
L 235.292543 178.569448 
L 232.596135 179.445564 
L 229.845181 180.131454 
L 227.053083 180.623776 
L 224.233444 180.920132 
L 221.4 181.019078 
L 218.566556 180.920132 
L 215.746917 180.623776 
L 212.954819 180.131454 
L 210.203865 179.445564 
L 207.507457 178.569448 
L 204.878733 177.507374 
L 202.330498 176.264517 
L 199.875168 174.846932 
L 197.524705 173.261525 
L 195.29056 171.516019 
L 193.183617 169.61892 
L 191.214142 167.579468 
L 189.39173 165.407602 
L 187.725258 163.1139 
L 186.222846 160.709539 
L 184.891814 158.206232 
L 183.738647 155.616174 
L 182.768961 152.951985 
L 181.987482 150.226644 
L 181.398017 147.453429 
L 181.003437 144.64585 
L 180.805666 141.817585 
L 180.805666 138.982415 
L 181.003437 136.15415 
L 181.398017 133.346571 
L 181.987482 130.573356 
L 182.768961 127.848015 
L 183.738647 125.183826 
L 184.891814 122.593768 
L 186.222846 120.090461 
L 187.725258 117.6861 
L 189.39173 115.392398 
L 191.214142 113.220532 
L 193.183617 111.18108 
L 195.29056 109.283981 
L 197.524705 107.538475 
L 199.875168 105.953068 
L 202.330498 104.535483 
L 204.878733 103.292626 
L 207.507457 102.230552 
L 210.203865 101.354436 
L 212.954819 100.668546 
L 215.746917 100.176224 
L 218.566556 99.879868 
L 221.4 99.780922 
L 221.4 99.780922 
" style="fill:none;stroke:#000000;stroke-dasharray:1.000000,3.000000;stroke-dashoffset:0.0;stroke-width:0.5;"/>
     </g>
     <g id="text_21">
      <!-- 50 -->
      <defs>
       <path d="M 10.796875 72.90625 
L 49.515625 72.90625 
L 49.515625 64.59375 
L 19.828125 64.59375 
L 19.828125 46.734375 
Q 21.96875 47.46875 24.109375 47.828125 
Q 26.265625 48.1875 28.421875 48.1875 
Q 40.625 48.1875 47.75 41.5 
Q 54.890625 34.8125 54.890625 23.390625 
Q 54.890625 11.625 47.5625 5.09375 
Q 40.234375 -1.421875 26.90625 -1.421875 
Q 22.3125 -1.421875 17.546875 -0.640625 
Q 12.796875 0.140625 7.71875 1.703125 
L 7.71875 11.625 
Q 12.109375 9.234375 16.796875 8.0625 
Q 21.484375 6.890625 26.703125 6.890625 
Q 35.15625 6.890625 40.078125 11.328125 
Q 45.015625 15.765625 45.015625 23.390625 
Q 45.015625 31 40.078125 35.4375 
Q 35.15625 39.890625 26.703125 39.890625 
Q 22.75 39.890625 18.8125 39.015625 
Q 14.890625 38.140625 10.796875 36.28125 
z
" id="BitstreamVeraSans-Roman-35"/>
      </defs>
      <g transform="translate(236.944248244 100.793177573)scale(0.1 -0.1)">
       <use xlink:href="#BitstreamVeraSans-Roman-35"/>
       <use x="63.623046875" xlink:href="#BitstreamVeraSans-Roman-30"/>
      </g>
     </g>
    </g>
    <g id="ytick_4">
     <g id="line2d_25">
      <path clip-path="url(#pd7b3638f57)" d="M 221.4 120.721909 
L 223.456921 120.829708 
L 225.491305 121.151922 
L 227.480865 121.685023 
L 229.403801 122.423169 
L 231.239046 123.358273 
L 232.966492 124.48009 
L 234.567213 125.776328 
L 236.023672 127.232787 
L 237.31991 128.833508 
L 238.441727 130.560954 
L 239.376831 132.396199 
L 240.114977 134.319135 
L 240.648078 136.308695 
L 240.970292 138.343079 
L 241.078091 140.4 
L 240.970292 142.456921 
L 240.648078 144.491305 
L 240.114977 146.480865 
L 239.376831 148.403801 
L 238.441727 150.239046 
L 237.31991 151.966492 
L 236.023672 153.567213 
L 234.567213 155.023672 
L 232.966492 156.31991 
L 231.239046 157.441727 
L 229.403801 158.376831 
L 227.480865 159.114977 
L 225.491305 159.648078 
L 223.456921 159.970292 
L 221.4 160.078091 
L 219.343079 159.970292 
L 217.308695 159.648078 
L 215.319135 159.114977 
L 213.396199 158.376831 
L 211.560954 157.441727 
L 209.833508 156.31991 
L 208.232787 155.023672 
L 206.776328 153.567213 
L 205.48009 151.966492 
L 204.358273 150.239046 
L 203.423169 148.403801 
L 202.685023 146.480865 
L 202.151922 144.491305 
L 201.829708 142.456921 
L 201.721909 140.4 
L 201.829708 138.343079 
L 202.151922 136.308695 
L 202.685023 134.319135 
L 203.423169 132.396199 
L 204.358273 130.560954 
L 205.48009 128.833508 
L 206.776328 127.232787 
L 208.232787 125.776328 
L 209.833508 124.48009 
L 211.560954 123.358273 
L 213.396199 122.423169 
L 215.319135 121.685023 
L 217.308695 121.151922 
L 219.343079 120.829708 
L 221.4 120.721909 
L 221.4 120.721909 
" style="fill:none;stroke:#000000;stroke-dasharray:1.000000,3.000000;stroke-dashoffset:0.0;stroke-width:0.5;"/>
     </g>
     <g id="text_22">
      <!-- 70 -->
      <defs>
       <path d="M 8.203125 72.90625 
L 55.078125 72.90625 
L 55.078125 68.703125 
L 28.609375 0 
L 18.3125 0 
L 43.21875 64.59375 
L 8.203125 64.59375 
z
" id="BitstreamVeraSans-Roman-37"/>
      </defs>
      <g transform="translate(228.930479424 120.140126943)scale(0.1 -0.1)">
       <use xlink:href="#BitstreamVeraSans-Roman-37"/>
       <use x="63.623046875" xlink:href="#BitstreamVeraSans-Roman-30"/>
      </g>
     </g>
    </g>
   </g>
   <g id="text_23">
    <!-- Schmidt Net -->
    <defs>
     <path id="BitstreamVeraSans-Roman-20"/>
     <path d="M 9.8125 72.90625 
L 23.09375 72.90625 
L 55.421875 11.921875 
L 55.421875 72.90625 
L 64.984375 72.90625 
L 64.984375 0 
L 51.703125 0 
L 19.390625 60.984375 
L 19.390625 0 
L 9.8125 0 
z
" id="BitstreamVeraSans-Roman-4e"/>
     <path d="M 52 44.1875 
Q 55.375 50.25 60.0625 53.125 
Q 64.75 56 71.09375 56 
Q 79.640625 56 84.28125 50.015625 
Q 88.921875 44.046875 88.921875 33.015625 
L 88.921875 0 
L 79.890625 0 
L 79.890625 32.71875 
Q 79.890625 40.578125 77.09375 44.375 
Q 74.3125 48.1875 68.609375 48.1875 
Q 61.625 48.1875 57.5625 43.546875 
Q 53.515625 38.921875 53.515625 30.90625 
L 53.515625 0 
L 44.484375 0 
L 44.484375 32.71875 
Q 44.484375 40.625 41.703125 44.40625 
Q 38.921875 48.1875 33.109375 48.1875 
Q 26.21875 48.1875 22.15625 43.53125 
Q 18.109375 38.875 18.109375 30.90625 
L 18.109375 0 
L 9.078125 0 
L 9.078125 54.6875 
L 18.109375 54.6875 
L 18.109375 46.1875 
Q 21.1875 51.21875 25.484375 53.609375 
Q 29.78125 56 35.6875 56 
Q 41.65625 56 45.828125 52.96875 
Q 50 49.953125 52 44.1875 
" id="BitstreamVeraSans-Roman-6d"/>
     <path d="M 53.515625 70.515625 
L 53.515625 60.890625 
Q 47.90625 63.578125 42.921875 64.890625 
Q 37.9375 66.21875 33.296875 66.21875 
Q 25.25 66.21875 20.875 63.09375 
Q 16.5 59.96875 16.5 54.203125 
Q 16.5 49.359375 19.40625 46.890625 
Q 22.3125 44.4375 30.421875 42.921875 
L 36.375 41.703125 
Q 47.40625 39.59375 52.65625 34.296875 
Q 57.90625 29 57.90625 20.125 
Q 57.90625 9.515625 50.796875 4.046875 
Q 43.703125 -1.421875 29.984375 -1.421875 
Q 24.8125 -1.421875 18.96875 -0.25 
Q 13.140625 0.921875 6.890625 3.21875 
L 6.890625 13.375 
Q 12.890625 10.015625 18.65625 8.296875 
Q 24.421875 6.59375 29.984375 6.59375 
Q 38.421875 6.59375 43.015625 9.90625 
Q 47.609375 13.234375 47.609375 19.390625 
Q 47.609375 24.75 44.3125 27.78125 
Q 41.015625 30.8125 33.5 32.328125 
L 27.484375 33.5 
Q 16.453125 35.6875 11.515625 40.375 
Q 6.59375 45.0625 6.59375 53.421875 
Q 6.59375 63.09375 13.40625 68.65625 
Q 20.21875 74.21875 32.171875 74.21875 
Q 37.3125 74.21875 42.625 73.28125 
Q 47.953125 72.359375 53.515625 70.515625 
" id="BitstreamVeraSans-Roman-53"/>
     <path d="M 9.421875 54.6875 
L 18.40625 54.6875 
L 18.40625 0 
L 9.421875 0 
z
M 9.421875 75.984375 
L 18.40625 75.984375 
L 18.40625 64.59375 
L 9.421875 64.59375 
z
" id="BitstreamVeraSans-Roman-69"/>
     <path d="M 54.890625 33.015625 
L 54.890625 0 
L 45.90625 0 
L 45.90625 32.71875 
Q 45.90625 40.484375 42.875 44.328125 
Q 39.84375 48.1875 33.796875 48.1875 
Q 26.515625 48.1875 22.3125 43.546875 
Q 18.109375 38.921875 18.109375 30.90625 
L 18.109375 0 
L 9.078125 0 
L 9.078125 75.984375 
L 18.109375 75.984375 
L 18.109375 46.1875 
Q 21.34375 51.125 25.703125 53.5625 
Q 30.078125 56 35.796875 56 
Q 45.21875 56 50.046875 50.171875 
Q 54.890625 44.34375 54.890625 33.015625 
" id="BitstreamVeraSans-Roman-68"/>
     <path d="M 56.203125 29.59375 
L 56.203125 25.203125 
L 14.890625 25.203125 
Q 15.484375 15.921875 20.484375 11.0625 
Q 25.484375 6.203125 34.421875 6.203125 
Q 39.59375 6.203125 44.453125 7.46875 
Q 49.3125 8.734375 54.109375 11.28125 
L 54.109375 2.78125 
Q 49.265625 0.734375 44.1875 -0.34375 
Q 39.109375 -1.421875 33.890625 -1.421875 
Q 20.796875 -1.421875 13.15625 6.1875 
Q 5.515625 13.8125 5.515625 26.8125 
Q 5.515625 40.234375 12.765625 48.109375 
Q 20.015625 56 32.328125 56 
Q 43.359375 56 49.78125 48.890625 
Q 56.203125 41.796875 56.203125 29.59375 
M 47.21875 32.234375 
Q 47.125 39.59375 43.09375 43.984375 
Q 39.0625 48.390625 32.421875 48.390625 
Q 24.90625 48.390625 20.390625 44.140625 
Q 15.875 39.890625 15.1875 32.171875 
z
" id="BitstreamVeraSans-Roman-65"/>
     <path d="M 45.40625 46.390625 
L 45.40625 75.984375 
L 54.390625 75.984375 
L 54.390625 0 
L 45.40625 0 
L 45.40625 8.203125 
Q 42.578125 3.328125 38.25 0.953125 
Q 33.9375 -1.421875 27.875 -1.421875 
Q 17.96875 -1.421875 11.734375 6.484375 
Q 5.515625 14.40625 5.515625 27.296875 
Q 5.515625 40.1875 11.734375 48.09375 
Q 17.96875 56 27.875 56 
Q 33.9375 56 38.25 53.625 
Q 42.578125 51.265625 45.40625 46.390625 
M 14.796875 27.296875 
Q 14.796875 17.390625 18.875 11.75 
Q 22.953125 6.109375 30.078125 6.109375 
Q 37.203125 6.109375 41.296875 11.75 
Q 45.40625 17.390625 45.40625 27.296875 
Q 45.40625 37.203125 41.296875 42.84375 
Q 37.203125 48.484375 30.078125 48.484375 
Q 22.953125 48.484375 18.875 42.84375 
Q 14.796875 37.203125 14.796875 27.296875 
" id="BitstreamVeraSans-Roman-64"/>
     <path d="M 18.3125 70.21875 
L 18.3125 54.6875 
L 36.8125 54.6875 
L 36.8125 47.703125 
L 18.3125 47.703125 
L 18.3125 18.015625 
Q 18.3125 11.328125 20.140625 9.421875 
Q 21.96875 7.515625 27.59375 7.515625 
L 36.8125 7.515625 
L 36.8125 0 
L 27.59375 0 
Q 17.1875 0 13.234375 3.875 
Q 9.28125 7.765625 9.28125 18.015625 
L 9.28125 47.703125 
L 2.6875 47.703125 
L 2.6875 54.6875 
L 9.28125 54.6875 
L 9.28125 70.21875 
z
" id="BitstreamVeraSans-Roman-74"/>
     <path d="M 48.78125 52.59375 
L 48.78125 44.1875 
Q 44.96875 46.296875 41.140625 47.34375 
Q 37.3125 48.390625 33.40625 48.390625 
Q 24.65625 48.390625 19.8125 42.84375 
Q 14.984375 37.3125 14.984375 27.296875 
Q 14.984375 17.28125 19.8125 11.734375 
Q 24.65625 6.203125 33.40625 6.203125 
Q 37.3125 6.203125 41.140625 7.25 
Q 44.96875 8.296875 48.78125 10.40625 
L 48.78125 2.09375 
Q 45.015625 0.34375 40.984375 -0.53125 
Q 36.96875 -1.421875 32.421875 -1.421875 
Q 20.0625 -1.421875 12.78125 6.34375 
Q 5.515625 14.109375 5.515625 27.296875 
Q 5.515625 40.671875 12.859375 48.328125 
Q 20.21875 56 33.015625 56 
Q 37.15625 56 41.109375 55.140625 
Q 45.0625 54.296875 48.78125 52.59375 
" id="BitstreamVeraSans-Roman-63"/>
    </defs>
    <g transform="translate(184.3771875 12.64)scale(0.12 -0.12)">
     <use xlink:href="#BitstreamVeraSans-Roman-53"/>
     <use x="63.4765625" xlink:href="#BitstreamVeraSans-Roman-63"/>
     <use x="118.45703125" xlink:href="#BitstreamVeraSans-Roman-68"/>
     <use x="181.8359375" xlink:href="#BitstreamVeraSans-Roman-6d"/>
     <use x="279.248046875" xlink:href="#BitstreamVeraSans-Roman-69"/>
     <use x="307.03125" xlink:href="#BitstreamVeraSans-Roman-64"/>
     <use x="370.5078125" xlink:href="#BitstreamVeraSans-Roman-74"/>
     <use x="409.716796875" xlink:href="#BitstreamVeraSans-Roman-20"/>
     <use x="441.50390625" xlink:href="#BitstreamVeraSans-Roman-4e"/>
     <use x="516.30859375" xlink:href="#BitstreamVeraSans-Roman-65"/>
     <use x="577.83203125" xlink:href="#BitstreamVeraSans-Roman-74"/>
    </g>
   </g>
  </g>
 </g>
 <defs>
  <clipPath id="pd7b3638f57">
   <path d="M 221.4 252 
C 250.996666 252 279.385114 240.24112 300.313117 219.313117 
C 321.24112 198.385114 333 169.996666 333 140.4 
C 333 110.803334 321.24112 82.414886 300.313117 61.486883 
C 279.385114 40.55888 250.996666 28.8 221.4 28.8 
C 191.803334 28.8 163.414886 40.55888 142.486883 61.486883 
C 121.55888 82.414886 109.8 110.803334 109.8 140.4 
C 109.8 169.996666 121.55888 198.385114 142.486883 219.313117 
C 163.414886 240.24112 191.803334 252 221.4 252 
z
"/>
  </clipPath>
 </defs>
</svg>
