<?xml version="1.0" encoding="utf-8" standalone="no"?>
<!DOCTYPE svg PUBLIC "-//W3C//DTD SVG 1.1//EN"
  "http://www.w3.org/Graphics/SVG/1.1/DTD/svg11.dtd">
<!-- Created with matplotlib (http://matplotlib.org/) -->
<svg height="288pt" version="1.1" viewBox="0 0 432 288" width="432pt" xmlns="http://www.w3.org/2000/svg" xmlns:xlink="http://www.w3.org/1999/xlink">
 <defs>
  <style type="text/css">
*{stroke-linecap:butt;stroke-linejoin:round;stroke-miterlimit:100000;}
  </style>
 </defs>
 <g id="figure_1">
  <g id="patch_1">
   <path d="M 0 288 
L 432 288 
L 432 0 
L 0 0 
z
" style="fill:#ffffff;"/>
  </g>
  <g id="axes_1">
   <g id="patch_2">
    <path d="M 221.4 252 
C 250.996666 252 279.385114 240.24112 300.313117 219.313117 
C 321.24112 198.385114 333 169.996666 333 140.4 
C 333 110.803334 321.24112 82.414886 300.313117 61.486883 
C 279.385114 40.55888 250.996666 28.8 221.4 28.8 
C 191.803334 28.8 163.414886 40.55888 142.486883 61.486883 
C 121.55888 82.414886 109.8 110.803334 109.8 140.4 
C 109.8 169.996666 121.55888 198.385114 142.486883 219.313117 
C 163.414886 240.24112 191.803334 252 221.4 252 
z
" style="fill:#ffffff;"/>
   </g>
   <g id="line2d_1">
    <path clip-path="url(#p53b76478bd)" d="M 221.4 28.8 
" style="fill:none;stroke:#0000ff;stroke-linecap:square;"/>
   </g>
   <g id="line2d_2">
    <defs>
     <path d="M 0 3 
C 0.795609 3 1.55874 2.683901 2.12132 2.12132 
C 2.683901 1.55874 3 0.795609 3 0 
C 3 -0.795609 2.683901 -1.55874 2.12132 -2.12132 
C 1.55874 -2.683901 0.795609 -3 0 -3 
C -0.795609 -3 -1.55874 -2.683901 -2.12132 -2.12132 
C -2.683901 -1.55874 -3 -0.795609 -3 0 
C -3 0.795609 -2.683901 1.55874 -2.12132 2.12132 
C -1.55874 2.683901 -0.795609 3 0 3 
z
" id="mbe9295d456" style="stroke:#000000;stroke-width:0.5;"/>
    </defs>
    <g clip-path="url(#p53b76478bd)">
     <use style="fill:#ff0000;stroke:#000000;stroke-width:0.5;" x="280.152496103" xlink:href="#mbe9295d456" y="72.5742633556"/>
    </g>
   </g>
   <g id="line2d_3">
    <defs>
     <path d="M -3 3 
L 3 3 
L 3 -3 
L -3 -3 
z
" id="m21e204ef16" style="stroke:#000000;stroke-linejoin:miter;stroke-width:0.5;"/>
    </defs>
    <g clip-path="url(#p53b76478bd)">
     <use style="fill:#0000ff;stroke:#000000;stroke-linejoin:miter;stroke-width:0.5;" x="284.367868419" xlink:href="#m21e204ef16" y="201.420109615"/>
    </g>
   </g>
   <g id="patch_3">
    <path d="M 221.4 252 
C 250.996666 252 279.385114 240.24112 300.313117 219.313117 
C 321.24112 198.385114 333 169.996666 333 140.4 
C 333 110.803334 321.24112 82.414886 300.313117 61.486883 
C 279.385114 40.55888 250.996666 28.8 221.4 28.8 
C 191.803334 28.8 163.414886 40.55888 142.486883 61.486883 
C 121.55888 82.414886 109.8 110.803334 109.8 140.4 
C 109.8 169.996666 121.55888 198.385114 142.486883 219.313117 
C 163.414886 240.24112 191.803334 252 221.4 252 
L 221.4 252 
z
" style="fill:none;stroke:#000000;stroke-linecap:square;stroke-linejoin:miter;"/>
   </g>
   <g id="matplotlib.axis_1">
    <g id="xtick_1">
     <g id="line2d_4">
      <path clip-path="url(#p53b76478bd)" d="M 221.4 140.4 
L 221.4 28.8 
" style="fill:none;stroke:#000000;stroke-dasharray:1.000000,3.000000;stroke-dashoffset:0.0;stroke-width:0.5;"/>
     </g>
     <g id="text_1">
      <!-- 0 -->
      <defs>
       <path d="M 31.78125 66.40625 
Q 24.171875 66.40625 20.328125 58.90625 
Q 16.5 51.421875 16.5 36.375 
Q 16.5 21.390625 20.328125 13.890625 
Q 24.171875 6.390625 31.78125 6.390625 
Q 39.453125 6.390625 43.28125 13.890625 
Q 47.125 21.390625 47.125 36.375 
Q 47.125 51.421875 43.28125 58.90625 
Q 39.453125 66.40625 31.78125 66.40625 
M 31.78125 74.21875 
Q 44.046875 74.21875 50.515625 64.515625 
Q 56.984375 54.828125 56.984375 36.375 
Q 56.984375 17.96875 50.515625 8.265625 
Q 44.046875 -1.421875 31.78125 -1.421875 
Q 19.53125 -1.421875 13.0625 8.265625 
Q 6.59375 17.96875 6.59375 36.375 
Q 6.59375 54.828125 13.0625 64.515625 
Q 19.53125 74.21875 31.78125 74.21875 
" id="BitstreamVeraSans-Roman-30"/>
      </defs>
      <g transform="translate(218.21875 20.399375)scale(0.1 -0.1)">
       <use xlink:href="#BitstreamVeraSans-Roman-30"/>
      </g>
     </g>
    </g>
    <g id="xtick_2">
     <g id="line2d_5">
      <path clip-path="url(#p53b76478bd)" d="M 221.4 140.4 
L 259.569448 35.530304 
" style="fill:none;stroke:#000000;stroke-dasharray:1.000000,3.000000;stroke-dashoffset:0.0;stroke-width:0.5;"/>
     </g>
     <g id="text_2">
      <!-- 20 -->
      <defs>
       <path d="M 19.1875 8.296875 
L 53.609375 8.296875 
L 53.609375 0 
L 7.328125 0 
L 7.328125 8.296875 
Q 12.9375 14.109375 22.625 23.890625 
Q 32.328125 33.6875 34.8125 36.53125 
Q 39.546875 41.84375 41.421875 45.53125 
Q 43.3125 49.21875 43.3125 52.78125 
Q 43.3125 58.59375 39.234375 62.25 
Q 35.15625 65.921875 28.609375 65.921875 
Q 23.96875 65.921875 18.8125 64.3125 
Q 13.671875 62.703125 7.8125 59.421875 
L 7.8125 69.390625 
Q 13.765625 71.78125 18.9375 73 
Q 24.125 74.21875 28.421875 74.21875 
Q 39.75 74.21875 46.484375 68.546875 
Q 53.21875 62.890625 53.21875 53.421875 
Q 53.21875 48.921875 51.53125 44.890625 
Q 49.859375 40.875 45.40625 35.40625 
Q 44.1875 33.984375 37.640625 27.21875 
Q 31.109375 20.453125 19.1875 8.296875 
" id="BitstreamVeraSans-Roman-32"/>
      </defs>
      <g transform="translate(257.023892795 27.8027088723)scale(0.1 -0.1)">
       <use xlink:href="#BitstreamVeraSans-Roman-32"/>
       <use x="63.623046875" xlink:href="#BitstreamVeraSans-Roman-30"/>
      </g>
     </g>
    </g>
    <g id="xtick_3">
     <g id="line2d_6">
      <path clip-path="url(#p53b76478bd)" d="M 221.4 140.4 
L 293.135097 54.90944 
" style="fill:none;stroke:#000000;stroke-dasharray:1.000000,3.000000;stroke-dashoffset:0.0;stroke-width:0.5;"/>
     </g>
     <g id="text_3">
      <!-- 40 -->
      <defs>
       <path d="M 37.796875 64.3125 
L 12.890625 25.390625 
L 37.796875 25.390625 
z
M 35.203125 72.90625 
L 47.609375 72.90625 
L 47.609375 25.390625 
L 58.015625 25.390625 
L 58.015625 17.1875 
L 47.609375 17.1875 
L 47.609375 0 
L 37.796875 0 
L 37.796875 17.1875 
L 4.890625 17.1875 
L 4.890625 26.703125 
z
" id="BitstreamVeraSans-Roman-34"/>
      </defs>
      <g transform="translate(293.946106965 49.1197591627)scale(0.1 -0.1)">
       <use xlink:href="#BitstreamVeraSans-Roman-34"/>
       <use x="63.623046875" xlink:href="#BitstreamVeraSans-Roman-30"/>
      </g>
     </g>
    </g>
    <g id="xtick_4">
     <g id="line2d_7">
      <path clip-path="url(#p53b76478bd)" d="M 221.4 140.4 
L 318.048435 84.6 
" style="fill:none;stroke:#000000;stroke-dasharray:1.000000,3.000000;stroke-dashoffset:0.0;stroke-width:0.5;"/>
     </g>
     <g id="text_4">
      <!-- 60 -->
      <defs>
       <path d="M 33.015625 40.375 
Q 26.375 40.375 22.484375 35.828125 
Q 18.609375 31.296875 18.609375 23.390625 
Q 18.609375 15.53125 22.484375 10.953125 
Q 26.375 6.390625 33.015625 6.390625 
Q 39.65625 6.390625 43.53125 10.953125 
Q 47.40625 15.53125 47.40625 23.390625 
Q 47.40625 31.296875 43.53125 35.828125 
Q 39.65625 40.375 33.015625 40.375 
M 52.59375 71.296875 
L 52.59375 62.3125 
Q 48.875 64.0625 45.09375 64.984375 
Q 41.3125 65.921875 37.59375 65.921875 
Q 27.828125 65.921875 22.671875 59.328125 
Q 17.53125 52.734375 16.796875 39.40625 
Q 19.671875 43.65625 24.015625 45.921875 
Q 28.375 48.1875 33.59375 48.1875 
Q 44.578125 48.1875 50.953125 41.515625 
Q 57.328125 34.859375 57.328125 23.390625 
Q 57.328125 12.15625 50.6875 5.359375 
Q 44.046875 -1.421875 33.015625 -1.421875 
Q 20.359375 -1.421875 13.671875 8.265625 
Q 6.984375 17.96875 6.984375 36.375 
Q 6.984375 53.65625 15.1875 63.9375 
Q 23.390625 74.21875 37.203125 74.21875 
Q 40.921875 74.21875 44.703125 73.484375 
Q 48.484375 72.75 52.59375 71.296875 
" id="BitstreamVeraSans-Roman-36"/>
      </defs>
      <g transform="translate(321.350778569 81.779375)scale(0.1 -0.1)">
       <use xlink:href="#BitstreamVeraSans-Roman-36"/>
       <use x="63.623046875" xlink:href="#BitstreamVeraSans-Roman-30"/>
      </g>
     </g>
    </g>
    <g id="xtick_5">
     <g id="line2d_8">
      <path clip-path="url(#p53b76478bd)" d="M 221.4 140.4 
L 331.304545 121.020863 
" style="fill:none;stroke:#000000;stroke-dasharray:1.000000,3.000000;stroke-dashoffset:0.0;stroke-width:0.5;"/>
     </g>
     <g id="text_5">
      <!-- 80 -->
      <defs>
       <path d="M 31.78125 34.625 
Q 24.75 34.625 20.71875 30.859375 
Q 16.703125 27.09375 16.703125 20.515625 
Q 16.703125 13.921875 20.71875 10.15625 
Q 24.75 6.390625 31.78125 6.390625 
Q 38.8125 6.390625 42.859375 10.171875 
Q 46.921875 13.96875 46.921875 20.515625 
Q 46.921875 27.09375 42.890625 30.859375 
Q 38.875 34.625 31.78125 34.625 
M 21.921875 38.8125 
Q 15.578125 40.375 12.03125 44.71875 
Q 8.5 49.078125 8.5 55.328125 
Q 8.5 64.0625 14.71875 69.140625 
Q 20.953125 74.21875 31.78125 74.21875 
Q 42.671875 74.21875 48.875 69.140625 
Q 55.078125 64.0625 55.078125 55.328125 
Q 55.078125 49.078125 51.53125 44.71875 
Q 48 40.375 41.703125 38.8125 
Q 48.828125 37.15625 52.796875 32.3125 
Q 56.78125 27.484375 56.78125 20.515625 
Q 56.78125 9.90625 50.3125 4.234375 
Q 43.84375 -1.421875 31.78125 -1.421875 
Q 19.734375 -1.421875 13.25 4.234375 
Q 6.78125 9.90625 6.78125 20.515625 
Q 6.78125 27.484375 10.78125 32.3125 
Q 14.796875 37.15625 21.921875 38.8125 
M 18.3125 54.390625 
Q 18.3125 48.734375 21.84375 45.5625 
Q 25.390625 42.390625 31.78125 42.390625 
Q 38.140625 42.390625 41.71875 45.5625 
Q 45.3125 48.734375 45.3125 54.390625 
Q 45.3125 60.0625 41.71875 63.234375 
Q 38.140625 66.40625 31.78125 66.40625 
Q 25.390625 66.40625 21.84375 63.234375 
Q 18.3125 60.0625 18.3125 54.390625 
" id="BitstreamVeraSans-Roman-38"/>
      </defs>
      <g transform="translate(335.93249976 121.84232471)scale(0.1 -0.1)">
       <use xlink:href="#BitstreamVeraSans-Roman-38"/>
       <use x="63.623046875" xlink:href="#BitstreamVeraSans-Roman-30"/>
      </g>
     </g>
    </g>
    <g id="xtick_6">
     <g id="line2d_9">
      <path clip-path="url(#p53b76478bd)" d="M 221.4 140.4 
L 331.304545 159.779137 
" style="fill:none;stroke:#000000;stroke-dasharray:1.000000,3.000000;stroke-dashoffset:0.0;stroke-width:0.5;"/>
     </g>
     <g id="text_6">
      <!-- 100 -->
      <defs>
       <path d="M 12.40625 8.296875 
L 28.515625 8.296875 
L 28.515625 63.921875 
L 10.984375 60.40625 
L 10.984375 69.390625 
L 28.421875 72.90625 
L 38.28125 72.90625 
L 38.28125 8.296875 
L 54.390625 8.296875 
L 54.390625 0 
L 12.40625 0 
z
" id="BitstreamVeraSans-Roman-31"/>
      </defs>
      <g transform="translate(332.75124976 164.47642529)scale(0.1 -0.1)">
       <use xlink:href="#BitstreamVeraSans-Roman-31"/>
       <use x="63.623046875" xlink:href="#BitstreamVeraSans-Roman-30"/>
       <use x="127.24609375" xlink:href="#BitstreamVeraSans-Roman-30"/>
      </g>
     </g>
    </g>
    <g id="xtick_7">
     <g id="line2d_10">
      <path clip-path="url(#p53b76478bd)" d="M 221.4 140.4 
L 318.048435 196.2 
" style="fill:none;stroke:#000000;stroke-dasharray:1.000000,3.000000;stroke-dashoffset:0.0;stroke-width:0.5;"/>
     </g>
     <g id="text_7">
      <!-- 120 -->
      <g transform="translate(318.169528569 204.539375)scale(0.1 -0.1)">
       <use xlink:href="#BitstreamVeraSans-Roman-31"/>
       <use x="63.623046875" xlink:href="#BitstreamVeraSans-Roman-32"/>
       <use x="127.24609375" xlink:href="#BitstreamVeraSans-Roman-30"/>
      </g>
     </g>
    </g>
    <g id="xtick_8">
     <g id="line2d_11">
      <path clip-path="url(#p53b76478bd)" d="M 221.4 140.4 
L 293.135097 225.89056 
" style="fill:none;stroke:#000000;stroke-dasharray:1.000000,3.000000;stroke-dashoffset:0.0;stroke-width:0.5;"/>
     </g>
     <g id="text_8">
      <!-- 140 -->
      <g transform="translate(290.764856965 237.198990837)scale(0.1 -0.1)">
       <use xlink:href="#BitstreamVeraSans-Roman-31"/>
       <use x="63.623046875" xlink:href="#BitstreamVeraSans-Roman-34"/>
       <use x="127.24609375" xlink:href="#BitstreamVeraSans-Roman-30"/>
      </g>
     </g>
    </g>
    <g id="xtick_9">
     <g id="line2d_12">
      <path clip-path="url(#p53b76478bd)" d="M 221.4 140.4 
L 259.569448 245.269696 
" style="fill:none;stroke:#000000;stroke-dasharray:1.000000,3.000000;stroke-dashoffset:0.0;stroke-width:0.5;"/>
     </g>
     <g id="text_9">
      <!-- 160 -->
      <g transform="translate(253.842642795 258.516041128)scale(0.1 -0.1)">
       <use xlink:href="#BitstreamVeraSans-Roman-31"/>
       <use x="63.623046875" xlink:href="#BitstreamVeraSans-Roman-36"/>
       <use x="127.24609375" xlink:href="#BitstreamVeraSans-Roman-30"/>
      </g>
     </g>
    </g>
    <g id="xtick_10">
     <g id="line2d_13">
      <path clip-path="url(#p53b76478bd)" d="M 221.4 140.4 
L 221.4 252 
" style="fill:none;stroke:#000000;stroke-dasharray:1.000000,3.000000;stroke-dashoffset:0.0;stroke-width:0.5;"/>
     </g>
     <g id="text_10">
      <!-- 180 -->
      <g transform="translate(211.85625 265.919375)scale(0.1 -0.1)">
       <use xlink:href="#BitstreamVeraSans-Roman-31"/>
       <use x="63.623046875" xlink:href="#BitstreamVeraSans-Roman-38"/>
       <use x="127.24609375" xlink:href="#BitstreamVeraSans-Roman-30"/>
      </g>
     </g>
    </g>
    <g id="xtick_11">
     <g id="line2d_14">
      <path clip-path="url(#p53b76478bd)" d="M 221.4 140.4 
L 183.230552 245.269696 
" style="fill:none;stroke:#000000;stroke-dasharray:1.000000,3.000000;stroke-dashoffset:0.0;stroke-width:0.5;"/>
     </g>
     <g id="text_11">
      <!-- 200 -->
      <g transform="translate(169.869857205 258.516041128)scale(0.1 -0.1)">
       <use xlink:href="#BitstreamVeraSans-Roman-32"/>
       <use x="63.623046875" xlink:href="#BitstreamVeraSans-Roman-30"/>
       <use x="127.24609375" xlink:href="#BitstreamVeraSans-Roman-30"/>
      </g>
     </g>
    </g>
    <g id="xtick_12">
     <g id="line2d_15">
      <path clip-path="url(#p53b76478bd)" d="M 221.4 140.4 
L 149.664903 225.89056 
" style="fill:none;stroke:#000000;stroke-dasharray:1.000000,3.000000;stroke-dashoffset:0.0;stroke-width:0.5;"/>
     </g>
     <g id="text_12">
      <!-- 220 -->
      <g transform="translate(132.947643035 237.198990837)scale(0.1 -0.1)">
       <use xlink:href="#BitstreamVeraSans-Roman-32"/>
       <use x="63.623046875" xlink:href="#BitstreamVeraSans-Roman-32"/>
       <use x="127.24609375" xlink:href="#BitstreamVeraSans-Roman-30"/>
      </g>
     </g>
    </g>
    <g id="xtick_13">
     <g id="line2d_16">
      <path clip-path="url(#p53b76478bd)" d="M 221.4 140.4 
L 124.751565 196.2 
" style="fill:none;stroke:#000000;stroke-dasharray:1.000000,3.000000;stroke-dashoffset:0.0;stroke-width:0.5;"/>
     </g>
     <g id="text_13">
      <!-- 240 -->
      <g transform="translate(105.542971431 204.539375)scale(0.1 -0.1)">
       <use xlink:href="#BitstreamVeraSans-Roman-32"/>
       <use x="63.623046875" xlink:href="#BitstreamVeraSans-Roman-34"/>
       <use x="127.24609375" xlink:href="#BitstreamVeraSans-Roman-30"/>
      </g>
     </g>
    </g>
    <g id="xtick_14">
     <g id="line2d_17">
      <path clip-path="url(#p53b76478bd)" d="M 221.4 140.4 
L 111.495455 159.779137 
" style="fill:none;stroke:#000000;stroke-dasharray:1.000000,3.000000;stroke-dashoffset:0.0;stroke-width:0.5;"/>
     </g>
     <g id="text_14">
      <!-- 260 -->
      <g transform="translate(90.9612502402 164.47642529)scale(0.1 -0.1)">
       <use xlink:href="#BitstreamVeraSans-Roman-32"/>
       <use x="63.623046875" xlink:href="#BitstreamVeraSans-Roman-36"/>
       <use x="127.24609375" xlink:href="#BitstreamVeraSans-Roman-30"/>
      </g>
     </g>
    </g>
    <g id="xtick_15">
     <g id="line2d_18">
      <path clip-path="url(#p53b76478bd)" d="M 221.4 140.4 
L 111.495455 121.020863 
" style="fill:none;stroke:#000000;stroke-dasharray:1.000000,3.000000;stroke-dashoffset:0.0;stroke-width:0.5;"/>
     </g>
     <g id="text_15">
      <!-- 280 -->
      <g transform="translate(90.9612502402 121.84232471)scale(0.1 -0.1)">
       <use xlink:href="#BitstreamVeraSans-Roman-32"/>
       <use x="63.623046875" xlink:href="#BitstreamVeraSans-Roman-38"/>
       <use x="127.24609375" xlink:href="#BitstreamVeraSans-Roman-30"/>
      </g>
     </g>
    </g>
    <g id="xtick_16">
     <g id="line2d_19">
      <path clip-path="url(#p53b76478bd)" d="M 221.4 140.4 
L 124.751565 84.6 
" style="fill:none;stroke:#000000;stroke-dasharray:1.000000,3.000000;stroke-dashoffset:0.0;stroke-width:0.5;"/>
     </g>
     <g id="text_16">
      <!-- 300 -->
      <defs>
       <path d="M 40.578125 39.3125 
Q 47.65625 37.796875 51.625 33 
Q 55.609375 28.21875 55.609375 21.1875 
Q 55.609375 10.40625 48.1875 4.484375 
Q 40.765625 -1.421875 27.09375 -1.421875 
Q 22.515625 -1.421875 17.65625 -0.515625 
Q 12.796875 0.390625 7.625 2.203125 
L 7.625 11.71875 
Q 11.71875 9.328125 16.59375 8.109375 
Q 21.484375 6.890625 26.8125 6.890625 
Q 36.078125 6.890625 40.9375 10.546875 
Q 45.796875 14.203125 45.796875 21.1875 
Q 45.796875 27.640625 41.28125 31.265625 
Q 36.765625 34.90625 28.71875 34.90625 
L 20.21875 34.90625 
L 20.21875 43.015625 
L 29.109375 43.015625 
Q 36.375 43.015625 40.234375 45.921875 
Q 44.09375 48.828125 44.09375 54.296875 
Q 44.09375 59.90625 40.109375 62.90625 
Q 36.140625 65.921875 28.71875 65.921875 
Q 24.65625 65.921875 20.015625 65.03125 
Q 15.375 64.15625 9.8125 62.3125 
L 9.8125 71.09375 
Q 15.4375 72.65625 20.34375 73.4375 
Q 25.25 74.21875 29.59375 74.21875 
Q 40.828125 74.21875 47.359375 69.109375 
Q 53.90625 64.015625 53.90625 55.328125 
Q 53.90625 49.265625 50.4375 45.09375 
Q 46.96875 40.921875 40.578125 39.3125 
" id="BitstreamVeraSans-Roman-33"/>
      </defs>
      <g transform="translate(105.542971431 81.779375)scale(0.1 -0.1)">
       <use xlink:href="#BitstreamVeraSans-Roman-33"/>
       <use x="63.623046875" xlink:href="#BitstreamVeraSans-Roman-30"/>
       <use x="127.24609375" xlink:href="#BitstreamVeraSans-Roman-30"/>
      </g>
     </g>
    </g>
    <g id="xtick_17">
     <g id="line2d_20">
      <path clip-path="url(#p53b76478bd)" d="M 221.4 140.4 
L 149.664903 54.90944 
" style="fill:none;stroke:#000000;stroke-dasharray:1.000000,3.000000;stroke-dashoffset:0.0;stroke-width:0.5;"/>
     </g>
     <g id="text_17">
      <!-- 320 -->
      <g transform="translate(132.947643035 49.1197591627)scale(0.1 -0.1)">
       <use xlink:href="#BitstreamVeraSans-Roman-33"/>
       <use x="63.623046875" xlink:href="#BitstreamVeraSans-Roman-32"/>
       <use x="127.24609375" xlink:href="#BitstreamVeraSans-Roman-30"/>
      </g>
     </g>
    </g>
    <g id="xtick_18">
     <g id="line2d_21">
      <path clip-path="url(#p53b76478bd)" d="M 221.4 140.4 
L 183.230552 35.530304 
" style="fill:none;stroke:#000000;stroke-dasharray:1.000000,3.000000;stroke-dashoffset:0.0;stroke-width:0.5;"/>
     </g>
     <g id="text_18">
      <!-- 340 -->
      <g transform="translate(169.869857205 27.8027088723)scale(0.1 -0.1)">
       <use xlink:href="#BitstreamVeraSans-Roman-33"/>
       <use x="63.623046875" xlink:href="#BitstreamVeraSans-Roman-34"/>
       <use x="127.24609375" xlink:href="#BitstreamVeraSans-Roman-30"/>
      </g>
     </g>
    </g>
   </g>
   <g id="matplotlib.axis_2">
    <g id="ytick_1">
     <g id="line2d_22">
      <path clip-path="url(#p53b76478bd)" d="M 221.4 38.951253 
L 224.94051 39.013052 
L 228.476707 39.198377 
L 232.004282 39.506999 
L 235.518937 39.938545 
L 239.01639 40.492487 
L 242.492381 41.168151 
L 245.942673 41.964714 
L 249.363064 42.881205 
L 252.749387 43.916508 
L 256.097515 45.069361 
L 259.40337 46.338359 
L 262.662923 47.721958 
L 265.872204 49.21847 
L 269.027302 50.826073 
L 272.124374 52.542808 
L 275.159646 54.366583 
L 278.12942 56.295177 
L 281.030078 58.326239 
L 283.858086 60.457296 
L 286.609998 62.685751 
L 289.282462 65.008888 
L 291.872222 67.423878 
L 294.376122 69.927778 
L 296.791112 72.517538 
L 299.114249 75.190002 
L 301.342704 77.941914 
L 303.473761 80.769922 
L 305.504823 83.67058 
L 307.433417 86.640354 
L 309.257192 89.675626 
L 310.973927 92.772698 
L 312.58153 95.927796 
L 314.078042 99.137077 
L 315.461641 102.39663 
L 316.730639 105.702485 
L 317.883492 109.050613 
L 318.918795 112.436936 
L 319.835286 115.857327 
L 320.631849 119.307619 
L 321.307513 122.78361 
L 321.861455 126.281063 
L 322.293001 129.795718 
L 322.601623 133.323293 
L 322.786948 136.85949 
L 322.848747 140.4 
L 322.786948 143.94051 
L 322.601623 147.476707 
L 322.293001 151.004282 
L 321.861455 154.518937 
L 321.307513 158.01639 
L 320.631849 161.492381 
L 319.835286 164.942673 
L 318.918795 168.363064 
L 317.883492 171.749387 
L 316.730639 175.097515 
L 315.461641 178.40337 
L 314.078042 181.662923 
L 312.58153 184.872204 
L 310.973927 188.027302 
L 309.257192 191.124374 
L 307.433417 194.159646 
L 305.504823 197.12942 
L 303.473761 200.030078 
L 301.342704 202.858086 
L 299.114249 205.609998 
L 296.791112 208.282462 
L 294.376122 210.872222 
L 291.872222 213.376122 
L 289.282462 215.791112 
L 286.609998 218.114249 
L 283.858086 220.342704 
L 281.030078 222.473761 
L 278.12942 224.504823 
L 275.159646 226.433417 
L 272.124374 228.257192 
L 269.027302 229.973927 
L 265.872204 231.58153 
L 262.662923 233.078042 
L 259.40337 234.461641 
L 256.097515 235.730639 
L 252.749387 236.883492 
L 249.363064 237.918795 
L 245.942673 238.835286 
L 242.492381 239.631849 
L 239.01639 240.307513 
L 235.518937 240.861455 
L 232.004282 241.293001 
L 228.476707 241.601623 
L 224.94051 241.786948 
L 221.4 241.848747 
L 217.85949 241.786948 
L 214.323293 241.601623 
L 210.795718 241.293001 
L 207.281063 240.861455 
L 203.78361 240.307513 
L 200.307619 239.631849 
L 196.857327 238.835286 
L 193.436936 237.918795 
L 190.050613 236.883492 
L 186.702485 235.730639 
L 183.39663 234.461641 
L 180.137077 233.078042 
L 176.927796 231.58153 
L 173.772698 229.973927 
L 170.675626 228.257192 
L 167.640354 226.433417 
L 164.67058 224.504823 
L 161.769922 222.473761 
L 158.941914 220.342704 
L 156.190002 218.114249 
L 153.517538 215.791112 
L 150.927778 213.376122 
L 148.423878 210.872222 
L 146.008888 208.282462 
L 143.685751 205.609998 
L 141.457296 202.858086 
L 139.326239 200.030078 
L 137.295177 197.12942 
L 135.366583 194.159646 
L 133.542808 191.124374 
L 131.826073 188.027302 
L 130.21847 184.872204 
L 128.721958 181.662923 
L 127.338359 178.40337 
L 126.069361 175.097515 
L 124.916508 171.749387 
L 123.881205 168.363064 
L 122.964714 164.942673 
L 122.168151 161.492381 
L 121.492487 158.01639 
L 120.938545 154.518937 
L 120.506999 151.004282 
L 120.198377 147.476707 
L 120.013052 143.94051 
L 119.951253 140.4 
L 120.013052 136.85949 
L 120.198377 133.323293 
L 120.506999 129.795718 
L 120.938545 126.281063 
L 121.492487 122.78361 
L 122.168151 119.307619 
L 122.964714 115.857327 
L 123.881205 112.436936 
L 124.916508 109.050613 
L 126.069361 105.702485 
L 127.338359 102.39663 
L 128.721958 99.137077 
L 130.21847 95.927796 
L 131.826073 92.772698 
L 133.542808 89.675626 
L 135.366583 86.640354 
L 137.295177 83.67058 
L 139.326239 80.769922 
L 141.457296 77.941914 
L 143.685751 75.190002 
L 146.008888 72.517538 
L 148.423878 69.927778 
L 150.927778 67.423878 
L 153.517538 65.008888 
L 156.190002 62.685751 
L 158.941914 60.457296 
L 161.769922 58.326239 
L 164.67058 56.295177 
L 167.640354 54.366583 
L 170.675626 52.542808 
L 173.772698 50.826073 
L 176.927796 49.21847 
L 180.137077 47.721958 
L 183.39663 46.338359 
L 186.702485 45.069361 
L 190.050613 43.916508 
L 193.436936 42.881205 
L 196.857327 41.964714 
L 200.307619 41.168151 
L 203.78361 40.492487 
L 207.281063 39.938545 
L 210.795718 39.506999 
L 214.323293 39.198377 
L 217.85949 39.013052 
L 221.4 38.951253 
L 221.4 38.951253 
" style="fill:none;stroke:#000000;stroke-dasharray:1.000000,3.000000;stroke-dashoffset:0.0;stroke-width:0.5;"/>
     </g>
     <g id="text_19">
      <!-- 10 -->
      <g transform="translate(260.22275487 44.5938911631)scale(0.1 -0.1)">
       <use xlink:href="#BitstreamVeraSans-Roman-31"/>
       <use x="63.623046875" xlink:href="#BitstreamVeraSans-Roman-30"/>
      </g>
     </g>
    </g>
    <g id="ytick_2">
     <g id="line2d_23">
      <path clip-path="url(#p53b76478bd)" d="M 221.4 61.486883 
L 224.154028 61.534955 
L 226.904701 61.679112 
L 232.382583 62.25486 
L 237.80696 63.211324 
L 243.151403 64.543844 
L 248.389876 66.245926 
L 253.496856 68.309281 
L 258.447464 70.723853 
L 263.217581 73.477882 
L 267.783966 76.557947 
L 272.124374 79.949045 
L 276.217657 83.634654 
L 280.043874 87.596818 
L 283.584385 91.816234 
L 286.821939 96.272345 
L 289.740764 100.943442 
L 292.32664 105.806767 
L 294.566968 110.838626 
L 296.450834 116.014506 
L 297.96906 121.309189 
L 299.114249 126.696881 
L 299.880822 132.151333 
L 300.265045 137.645972 
L 300.265045 143.154028 
L 299.880822 148.648667 
L 299.114249 154.103119 
L 297.96906 159.490811 
L 296.450834 164.785494 
L 294.566968 169.961374 
L 292.32664 174.993233 
L 289.740764 179.856558 
L 286.821939 184.527655 
L 283.584385 188.983766 
L 280.043874 193.203182 
L 276.217657 197.165346 
L 272.124374 200.850955 
L 267.783966 204.242053 
L 263.217581 207.322118 
L 258.447464 210.076147 
L 253.496856 212.490719 
L 248.389876 214.554074 
L 243.151403 216.256156 
L 237.80696 217.588676 
L 232.382583 218.54514 
L 226.904701 219.120888 
L 221.4 219.313117 
L 215.895299 219.120888 
L 210.417417 218.54514 
L 204.99304 217.588676 
L 199.648597 216.256156 
L 194.410124 214.554074 
L 189.303144 212.490719 
L 184.352536 210.076147 
L 179.582419 207.322118 
L 175.016034 204.242053 
L 170.675626 200.850955 
L 166.582343 197.165346 
L 162.756126 193.203182 
L 159.215615 188.983766 
L 155.978061 184.527655 
L 153.059236 179.856558 
L 150.47336 174.993233 
L 148.233032 169.961374 
L 146.349166 164.785494 
L 144.83094 159.490811 
L 143.685751 154.103119 
L 142.919178 148.648667 
L 142.534955 143.154028 
L 142.534955 137.645972 
L 142.919178 132.151333 
L 143.685751 126.696881 
L 144.83094 121.309189 
L 146.349166 116.014506 
L 148.233032 110.838626 
L 150.47336 105.806767 
L 153.059236 100.943442 
L 155.978061 96.272345 
L 159.215615 91.816234 
L 162.756126 87.596818 
L 166.582343 83.634654 
L 170.675626 79.949045 
L 175.016034 76.557947 
L 179.582419 73.477882 
L 184.352536 70.723853 
L 189.303144 68.309281 
L 194.410124 66.245926 
L 199.648597 64.543844 
L 204.99304 63.211324 
L 210.417417 62.25486 
L 215.895299 61.679112 
L 221.4 61.486883 
L 221.4 61.486883 
" style="fill:none;stroke:#000000;stroke-dasharray:1.000000,3.000000;stroke-dashoffset:0.0;stroke-width:0.5;"/>
     </g>
     <g id="text_20">
      <!-- 30 -->
      <g transform="translate(251.598742388 65.4140990599)scale(0.1 -0.1)">
       <use xlink:href="#BitstreamVeraSans-Roman-33"/>
       <use x="63.623046875" xlink:href="#BitstreamVeraSans-Roman-30"/>
      </g>
     </g>
    </g>
    <g id="ytick_3">
     <g id="line2d_24">
      <path clip-path="url(#p53b76478bd)" d="M 221.4 86.420249 
L 223.283866 86.453132 
L 225.165437 86.551741 
L 228.912529 86.945576 
L 232.623021 87.599836 
L 236.278836 88.511333 
L 239.862162 89.675626 
L 243.355543 91.087044 
L 246.741958 92.738709 
L 250.00491 94.622575 
L 253.128502 96.729464 
L 256.097515 99.049112 
L 258.897486 101.570217 
L 261.514773 104.280496 
L 263.936624 107.166747 
L 266.151242 110.214906 
L 268.147836 113.410124 
L 269.916679 116.736835 
L 271.449154 120.178829 
L 272.737794 123.71934 
L 273.776322 127.341116 
L 274.559677 131.026515 
L 275.084044 134.75758 
L 275.346868 138.516134 
L 275.346868 142.283866 
L 275.084044 146.04242 
L 274.559677 149.773485 
L 273.776322 153.458884 
L 272.737794 157.08066 
L 271.449154 160.621171 
L 269.916679 164.063165 
L 268.147836 167.389876 
L 266.151242 170.585094 
L 263.936624 173.633253 
L 261.514773 176.519504 
L 258.897486 179.229783 
L 256.097515 181.750888 
L 253.128502 184.070536 
L 250.00491 186.177425 
L 246.741958 188.061291 
L 243.355543 189.712956 
L 239.862162 191.124374 
L 236.278836 192.288667 
L 232.623021 193.200164 
L 228.912529 193.854424 
L 225.165437 194.248259 
L 221.4 194.379751 
L 217.634563 194.248259 
L 213.887471 193.854424 
L 210.176979 193.200164 
L 206.521164 192.288667 
L 202.937838 191.124374 
L 199.444457 189.712956 
L 196.058042 188.061291 
L 192.79509 186.177425 
L 189.671498 184.070536 
L 186.702485 181.750888 
L 183.902514 179.229783 
L 181.285227 176.519504 
L 178.863376 173.633253 
L 176.648758 170.585094 
L 174.652164 167.389876 
L 172.883321 164.063165 
L 171.350846 160.621171 
L 170.062206 157.08066 
L 169.023678 153.458884 
L 168.240323 149.773485 
L 167.715956 146.04242 
L 167.453132 142.283866 
L 167.453132 138.516134 
L 167.715956 134.75758 
L 168.240323 131.026515 
L 169.023678 127.341116 
L 170.062206 123.71934 
L 171.350846 120.178829 
L 172.883321 116.736835 
L 174.652164 113.410124 
L 176.648758 110.214906 
L 178.863376 107.166747 
L 181.285227 104.280496 
L 183.902514 101.570217 
L 186.702485 99.049112 
L 189.671498 96.729464 
L 192.79509 94.622575 
L 196.058042 92.738709 
L 199.444457 91.087044 
L 202.937838 89.675626 
L 206.521164 88.511333 
L 210.176979 87.599836 
L 213.887471 86.945576 
L 217.634563 86.551741 
L 221.4 86.420249 
L 221.4 86.420249 
" style="fill:none;stroke:#000000;stroke-dasharray:1.000000,3.000000;stroke-dashoffset:0.0;stroke-width:0.5;"/>
     </g>
     <g id="text_21">
      <!-- 50 -->
      <defs>
       <path d="M 10.796875 72.90625 
L 49.515625 72.90625 
L 49.515625 64.59375 
L 19.828125 64.59375 
L 19.828125 46.734375 
Q 21.96875 47.46875 24.109375 47.828125 
Q 26.265625 48.1875 28.421875 48.1875 
Q 40.625 48.1875 47.75 41.5 
Q 54.890625 34.8125 54.890625 23.390625 
Q 54.890625 11.625 47.5625 5.09375 
Q 40.234375 -1.421875 26.90625 -1.421875 
Q 22.3125 -1.421875 17.546875 -0.640625 
Q 12.796875 0.140625 7.71875 1.703125 
L 7.71875 11.625 
Q 12.109375 9.234375 16.796875 8.0625 
Q 21.484375 6.890625 26.703125 6.890625 
Q 35.15625 6.890625 40.078125 11.328125 
Q 45.015625 15.765625 45.015625 23.390625 
Q 45.015625 31 40.078125 35.4375 
Q 35.15625 39.890625 26.703125 39.890625 
Q 22.75 39.890625 18.8125 39.015625 
Q 14.890625 38.140625 10.796875 36.28125 
z
" id="BitstreamVeraSans-Roman-35"/>
      </defs>
      <g transform="translate(242.0571564 88.4495253598)scale(0.1 -0.1)">
       <use xlink:href="#BitstreamVeraSans-Roman-35"/>
       <use x="63.623046875" xlink:href="#BitstreamVeraSans-Roman-30"/>
      </g>
     </g>
    </g>
    <g id="ytick_4">
     <g id="line2d_25">
      <path clip-path="url(#p53b76478bd)" d="M 221.4 112.993762 
L 224.264732 113.143896 
L 227.098077 113.592654 
L 229.868993 114.335119 
L 232.547121 115.363156 
L 235.103119 116.665502 
L 237.508982 118.227888 
L 239.738353 120.033196 
L 241.766804 122.061647 
L 243.572112 124.291018 
L 245.134498 126.696881 
L 246.436844 129.252879 
L 247.464881 131.931007 
L 248.207346 134.701923 
L 248.656104 137.535268 
L 248.806238 140.4 
L 248.656104 143.264732 
L 248.207346 146.098077 
L 247.464881 148.868993 
L 246.436844 151.547121 
L 245.134498 154.103119 
L 243.572112 156.508982 
L 241.766804 158.738353 
L 239.738353 160.766804 
L 237.508982 162.572112 
L 235.103119 164.134498 
L 232.547121 165.436844 
L 229.868993 166.464881 
L 227.098077 167.207346 
L 224.264732 167.656104 
L 221.4 167.806238 
L 218.535268 167.656104 
L 215.701923 167.207346 
L 212.931007 166.464881 
L 210.252879 165.436844 
L 207.696881 164.134498 
L 205.291018 162.572112 
L 203.061647 160.766804 
L 201.033196 158.738353 
L 199.227888 156.508982 
L 197.665502 154.103119 
L 196.363156 151.547121 
L 195.335119 148.868993 
L 194.592654 146.098077 
L 194.143896 143.264732 
L 193.993762 140.4 
L 194.143896 137.535268 
L 194.592654 134.701923 
L 195.335119 131.931007 
L 196.363156 129.252879 
L 197.665502 126.696881 
L 199.227888 124.291018 
L 201.033196 122.061647 
L 203.061647 120.033196 
L 205.291018 118.227888 
L 207.696881 116.665502 
L 210.252879 115.363156 
L 212.931007 114.335119 
L 215.701923 113.592654 
L 218.535268 113.143896 
L 221.4 112.993762 
L 221.4 112.993762 
" style="fill:none;stroke:#000000;stroke-dasharray:1.000000,3.000000;stroke-dashoffset:0.0;stroke-width:0.5;"/>
     </g>
     <g id="text_22">
      <!-- 70 -->
      <defs>
       <path d="M 8.203125 72.90625 
L 55.078125 72.90625 
L 55.078125 68.703125 
L 28.609375 0 
L 18.3125 0 
L 43.21875 64.59375 
L 8.203125 64.59375 
z
" id="BitstreamVeraSans-Roman-37"/>
      </defs>
      <g transform="translate(231.887913167 113.000250291)scale(0.1 -0.1)">
       <use xlink:href="#BitstreamVeraSans-Roman-37"/>
       <use x="63.623046875" xlink:href="#BitstreamVeraSans-Roman-30"/>
      </g>
     </g>
    </g>
   </g>
   <g id="text_23">
    <!-- Wulff Net -->
    <defs>
     <path id="BitstreamVeraSans-Roman-20"/>
     <path d="M 9.8125 72.90625 
L 23.09375 72.90625 
L 55.421875 11.921875 
L 55.421875 72.90625 
L 64.984375 72.90625 
L 64.984375 0 
L 51.703125 0 
L 19.390625 60.984375 
L 19.390625 0 
L 9.8125 0 
z
" id="BitstreamVeraSans-Roman-4e"/>
     <path d="M 37.109375 75.984375 
L 37.109375 68.5 
L 28.515625 68.5 
Q 23.6875 68.5 21.796875 66.546875 
Q 19.921875 64.59375 19.921875 59.515625 
L 19.921875 54.6875 
L 34.71875 54.6875 
L 34.71875 47.703125 
L 19.921875 47.703125 
L 19.921875 0 
L 10.890625 0 
L 10.890625 47.703125 
L 2.296875 47.703125 
L 2.296875 54.6875 
L 10.890625 54.6875 
L 10.890625 58.5 
Q 10.890625 67.625 15.140625 71.796875 
Q 19.390625 75.984375 28.609375 75.984375 
z
" id="BitstreamVeraSans-Roman-66"/>
     <path d="M 9.421875 75.984375 
L 18.40625 75.984375 
L 18.40625 0 
L 9.421875 0 
z
" id="BitstreamVeraSans-Roman-6c"/>
     <path d="M 3.328125 72.90625 
L 13.28125 72.90625 
L 28.609375 11.28125 
L 43.890625 72.90625 
L 54.984375 72.90625 
L 70.3125 11.28125 
L 85.59375 72.90625 
L 95.609375 72.90625 
L 77.296875 0 
L 64.890625 0 
L 49.515625 63.28125 
L 33.984375 0 
L 21.578125 0 
z
" id="BitstreamVeraSans-Roman-57"/>
     <path d="M 56.203125 29.59375 
L 56.203125 25.203125 
L 14.890625 25.203125 
Q 15.484375 15.921875 20.484375 11.0625 
Q 25.484375 6.203125 34.421875 6.203125 
Q 39.59375 6.203125 44.453125 7.46875 
Q 49.3125 8.734375 54.109375 11.28125 
L 54.109375 2.78125 
Q 49.265625 0.734375 44.1875 -0.34375 
Q 39.109375 -1.421875 33.890625 -1.421875 
Q 20.796875 -1.421875 13.15625 6.1875 
Q 5.515625 13.8125 5.515625 26.8125 
Q 5.515625 40.234375 12.765625 48.109375 
Q 20.015625 56 32.328125 56 
Q 43.359375 56 49.78125 48.890625 
Q 56.203125 41.796875 56.203125 29.59375 
M 47.21875 32.234375 
Q 47.125 39.59375 43.09375 43.984375 
Q 39.0625 48.390625 32.421875 48.390625 
Q 24.90625 48.390625 20.390625 44.140625 
Q 15.875 39.890625 15.1875 32.171875 
z
" id="BitstreamVeraSans-Roman-65"/>
     <path d="M 18.3125 70.21875 
L 18.3125 54.6875 
L 36.8125 54.6875 
L 36.8125 47.703125 
L 18.3125 47.703125 
L 18.3125 18.015625 
Q 18.3125 11.328125 20.140625 9.421875 
Q 21.96875 7.515625 27.59375 7.515625 
L 36.8125 7.515625 
L 36.8125 0 
L 27.59375 0 
Q 17.1875 0 13.234375 3.875 
Q 9.28125 7.765625 9.28125 18.015625 
L 9.28125 47.703125 
L 2.6875 47.703125 
L 2.6875 54.6875 
L 9.28125 54.6875 
L 9.28125 70.21875 
z
" id="BitstreamVeraSans-Roman-74"/>
     <path d="M 8.5 21.578125 
L 8.5 54.6875 
L 17.484375 54.6875 
L 17.484375 21.921875 
Q 17.484375 14.15625 20.5 10.265625 
Q 23.53125 6.390625 29.59375 6.390625 
Q 36.859375 6.390625 41.078125 11.03125 
Q 45.3125 15.671875 45.3125 23.6875 
L 45.3125 54.6875 
L 54.296875 54.6875 
L 54.296875 0 
L 45.3125 0 
L 45.3125 8.40625 
Q 42.046875 3.421875 37.71875 1 
Q 33.40625 -1.421875 27.6875 -1.421875 
Q 18.265625 -1.421875 13.375 4.4375 
Q 8.5 10.296875 8.5 21.578125 
" id="BitstreamVeraSans-Roman-75"/>
    </defs>
    <g transform="translate(193.336875 12.64)scale(0.12 -0.12)">
     <use xlink:href="#BitstreamVeraSans-Roman-57"/>
     <use x="98.830078125" xlink:href="#BitstreamVeraSans-Roman-75"/>
     <use x="162.208984375" xlink:href="#BitstreamVeraSans-Roman-6c"/>
     <use x="189.9921875" xlink:href="#BitstreamVeraSans-Roman-66"/>
     <use x="225.197265625" xlink:href="#BitstreamVeraSans-Roman-66"/>
     <use x="260.40234375" xlink:href="#BitstreamVeraSans-Roman-20"/>
     <use x="292.189453125" xlink:href="#BitstreamVeraSans-Roman-4e"/>
     <use x="366.994140625" xlink:href="#BitstreamVeraSans-Roman-65"/>
     <use x="428.517578125" xlink:href="#BitstreamVeraSans-Roman-74"/>
    </g>
   </g>
  </g>
 </g>
 <defs>
  <clipPath id="p53b76478bd">
   <path d="M 221.4 252 
C 250.996666 252 279.385114 240.24112 300.313117 219.313117 
C 321.24112 198.385114 333 169.996666 333 140.4 
C 333 110.803334 321.24112 82.414886 300.313117 61.486883 
C 279.385114 40.55888 250.996666 28.8 221.4 28.8 
C 191.803334 28.8 163.414886 40.55888 142.486883 61.486883 
C 121.55888 82.414886 109.8 110.803334 109.8 140.4 
C 109.8 169.996666 121.55888 198.385114 142.486883 219.313117 
C 163.414886 240.24112 191.803334 252 221.4 252 
z
"/>
  </clipPath>
 </defs>
</svg>
